<svg width="1000" height="1000" xmlns="http://www.w3.org/2000/svg" style="background-color:black;">
<!-- Generated Star Map (Azimuthal Equidistant Projection (North Pole to -55 deg)) -->
<defs>
  <clipPath id="map-circle">
    <circle cx="500" cy="500" r="500"/>
  </clipPath>
</defs>
<circle cx="500" cy="500" r="500" fill="none" stroke="#333" stroke-width="1"/>
<circle cx="500" cy="500" r="310.345" fill="none" stroke="#333" stroke-width="0.5" stroke-dasharray="4 4"/>
<circle cx="500" cy="500" r="413.793" fill="none" stroke="#333" stroke-width="0.5" stroke-dasharray="4 4"/>
<g clip-path="url(#map-circle)">
  <polyline points="810.345,500 810.298,494.584 810.156,489.169 809.92,483.758 809.589,478.351 809.164,472.952 808.645,467.56 808.032,462.178 807.325,456.808 806.524,451.451 805.63,446.109 804.643,440.783 803.563,435.476 802.391,430.188 801.126,424.921 799.77,419.677 798.323,414.457 796.784,409.264 795.155,404.098 793.437,398.962 791.629,393.856 789.732,388.782 787.747,383.743 785.674,378.739 783.514,373.771 781.268,368.843 778.936,363.954 776.519,359.106 774.018,354.302 771.434,349.542 768.767,344.828 766.017,340.161 763.187,335.542 760.277,330.974 757.288,326.457 754.22,321.994 751.074,317.584 747.852,313.23 744.555,308.933 741.183,304.694 737.738,300.514 734.22,296.395 730.631,292.339 726.972,288.345 723.243,284.416 719.447,280.553 715.584,276.757 711.655,273.028 707.661,269.369 703.605,265.78 699.486,262.262 695.306,258.817 691.067,255.445 686.77,252.148 682.416,248.926 678.006,245.78 673.543,242.712 669.026,239.723 664.458,236.813 659.839,233.983 655.172,231.233 650.458,228.566 645.698,225.982 640.894,223.481 636.046,221.064 631.157,218.732 626.229,216.486 621.261,214.326 616.257,212.253 611.218,210.268 606.144,208.371 601.038,206.563 595.902,204.845 590.736,203.216 585.543,201.677 580.323,200.23 575.079,198.874 569.812,197.609 564.524,196.437 559.217,195.357 553.891,194.37 548.549,193.476 543.192,192.675 537.822,191.968 532.44,191.355 527.048,190.836 521.649,190.411 516.242,190.08 510.831,189.844 505.416,189.702 500,189.655 494.584,189.702 489.169,189.844 483.758,190.08 478.351,190.411 472.952,190.836 467.56,191.355 462.178,191.968 456.808,192.675 451.451,193.476 446.109,194.37 440.783,195.357 435.476,196.437 430.188,197.609 424.921,198.874 419.677,200.23 414.457,201.677 409.264,203.216 404.098,204.845 398.962,206.563 393.856,208.371 388.782,210.268 383.743,212.253 378.739,214.326 373.771,216.486 368.843,218.732 363.954,221.064 359.106,223.481 354.302,225.982 349.542,228.566 344.828,231.233 340.161,233.983 335.542,236.813 330.974,239.723 326.457,242.712 321.994,245.78 317.584,248.926 313.23,252.148 308.933,255.445 304.694,258.817 300.514,262.262 296.395,265.78 292.339,269.369 288.345,273.028 284.416,276.757 280.553,280.553 276.757,284.416 273.028,288.345 269.369,292.339 265.78,296.395 262.262,300.514 258.817,304.694 255.445,308.933 252.148,313.23 248.926,317.584 245.78,321.994 242.712,326.457 239.723,330.974 236.813,335.542 233.983,340.161 231.233,344.828 228.566,349.542 225.982,354.302 223.481,359.106 221.064,363.954 218.732,368.843 216.486,373.771 214.326,378.739 212.253,383.743 210.268,388.782 208.371,393.856 206.563,398.962 204.845,404.098 203.216,409.264 201.677,414.457 200.23,419.677 198.874,424.921 197.609,430.188 196.437,435.476 195.357,440.783 194.37,446.109 193.476,451.451 192.675,456.808 191.968,462.178 191.355,467.56 190.836,472.952 190.411,478.351 190.08,483.758 189.844,489.169 189.702,494.584 189.655,500 189.702,505.416 189.844,510.831 190.08,516.242 190.411,521.649 190.836,527.048 191.355,532.44 191.968,537.822 192.675,543.192 193.476,548.549 194.37,553.891 195.357,559.217 196.437,564.524 197.609,569.812 198.874,575.079 200.23,580.323 201.677,585.543 203.216,590.736 204.845,595.902 206.563,601.038 208.371,606.144 210.268,611.218 212.253,616.257 214.326,621.261 216.486,626.229 218.732,631.157 221.064,636.046 223.481,640.894 225.982,645.698 228.566,650.458 231.233,655.172 233.983,659.839 236.813,664.458 239.723,669.026 242.712,673.543 245.78,678.006 248.926,682.416 252.148,686.77 255.445,691.067 258.817,695.306 262.262,699.486 265.78,703.605 269.369,707.661 273.028,711.655 276.757,715.584 280.553,719.447 284.416,723.243 288.345,726.972 292.339,730.631 296.395,734.22 300.514,737.738 304.694,741.183 308.933,744.555 313.23,747.852 317.584,751.074 321.994,754.22 326.457,757.288 330.974,760.277 335.542,763.187 340.161,766.017 344.828,768.767 349.542,771.434 354.302,774.018 359.106,776.519 363.954,778.936 368.843,781.268 373.771,783.514 378.739,785.674 383.743,787.747 388.782,789.732 393.856,791.629 398.962,793.437 404.098,795.155 409.264,796.784 414.457,798.323 419.677,799.77 424.921,801.126 430.188,802.391 435.476,803.563 440.783,804.643 446.109,805.63 451.451,806.524 456.808,807.325 462.178,808.032 467.56,808.645 472.952,809.164 478.351,809.589 483.758,809.92 489.169,810.156 494.584,810.298 500,810.345 505.416,810.298 510.831,810.156 516.242,809.92 521.649,809.589 527.048,809.164 532.44,808.645 537.822,808.032 543.192,807.325 548.549,806.524 553.891,805.63 559.217,804.643 564.524,803.563 569.812,802.391 575.079,801.126 580.323,799.77 585.543,798.323 590.736,796.784 595.902,795.155 601.038,793.437 606.144,791.629 611.218,789.732 616.257,787.747 621.261,785.674 626.229,783.514 631.157,781.268 636.046,778.936 640.894,776.519 645.698,774.018 650.458,771.434 655.172,768.767 659.839,766.017 664.458,763.187 669.026,760.277 673.543,757.288 678.006,754.22 682.416,751.074 686.77,747.852 691.067,744.555 695.306,741.183 699.486,737.738 703.605,734.22 707.661,730.631 711.655,726.972 715.584,723.243 719.447,719.447 723.243,715.584 726.972,711.655 730.631,707.661 734.22,703.605 737.738,699.486 741.183,695.306 744.555,691.067 747.852,686.77 751.074,682.416 754.22,678.006 757.288,673.543 760.277,669.026 763.187,664.458 766.017,659.839 768.767,655.172 771.434,650.458 774.018,645.698 776.519,640.894 778.936,636.046 781.268,631.157 783.514,626.229 785.674,621.261 787.747,616.257 789.732,611.218 791.629,606.144 793.437,601.038 795.155,595.902 796.784,590.736 798.323,585.543 799.77,580.323 801.126,575.079 802.391,569.812 803.563,564.524 804.643,559.217 805.63,553.891 806.524,548.549 807.325,543.192 808.032,537.822 808.645,532.44 809.164,527.048 809.589,521.649 809.92,516.242 810.156,510.831 810.298,505.416 810.345,500 " fill="none" stroke="#ff0000" stroke-width="1.5"/>
  <polyline points="810.345,500 808.934,495.053 807.444,490.15 805.878,485.292 804.236,480.481 802.521,475.717 800.732,471 798.873,466.331 796.943,461.711 794.945,457.14 792.879,452.619 790.747,448.148 788.55,443.728 786.29,439.359 783.967,435.042 781.584,430.776 779.14,426.563 776.638,422.403 774.078,418.296 771.462,414.242 768.791,410.242 766.065,406.295 763.287,402.403 760.457,398.566 757.576,394.783 754.646,391.056 751.667,387.383 748.641,383.766 745.568,380.204 742.45,376.698 739.288,373.248 736.082,369.854 732.833,366.516 729.543,363.234 726.213,360.009 722.843,356.84 719.435,353.728 715.989,350.672 712.506,347.673 708.987,344.731 705.434,341.846 701.846,339.018 698.225,336.247 694.571,333.532 690.886,330.875 687.17,328.275 683.425,325.733 679.65,323.247 675.847,320.819 672.016,318.448 668.159,316.134 664.276,313.877 660.367,311.678 656.435,309.536 652.478,307.451 648.498,305.424 644.497,303.453 640.473,301.54 636.429,299.685 632.365,297.886 628.282,296.145 624.18,294.461 620.059,292.835 615.922,291.266 611.767,289.753 607.597,288.299 603.412,286.901 599.211,285.56 594.997,284.277 590.77,283.051 586.529,281.882 582.277,280.77 578.013,279.715 573.738,278.717 569.453,277.777 565.158,276.893 560.855,276.067 556.543,275.297 552.223,274.585 547.896,273.93 543.563,273.331 539.223,272.79 534.879,272.306 530.529,271.878 526.176,271.508 521.818,271.195 517.458,270.938 513.096,270.739 508.731,270.597 504.366,270.511 500,270.483 495.634,270.511 491.269,270.597 486.904,270.739 482.542,270.938 478.182,271.195 473.824,271.508 469.471,271.878 465.121,272.306 460.777,272.79 456.437,273.331 452.104,273.93 447.777,274.585 443.457,275.297 439.145,276.067 434.842,276.893 430.547,277.777 426.262,278.717 421.987,279.715 417.723,280.77 413.471,281.882 409.23,283.051 405.003,284.277 400.789,285.56 396.588,286.901 392.403,288.299 388.233,289.753 384.078,291.266 379.941,292.835 375.82,294.461 371.718,296.145 367.635,297.886 363.571,299.685 359.527,301.54 355.503,303.453 351.502,305.424 347.522,307.451 343.565,309.536 339.633,311.678 335.724,313.877 331.841,316.134 327.984,318.448 324.153,320.819 320.35,323.247 316.575,325.733 312.83,328.275 309.114,330.875 305.429,333.532 301.775,336.247 298.154,339.018 294.566,341.846 291.013,344.731 287.494,347.673 284.011,350.672 280.565,353.728 277.157,356.84 273.787,360.009 270.457,363.234 267.167,366.516 263.918,369.854 260.712,373.248 257.55,376.698 254.432,380.204 251.359,383.766 248.333,387.383 245.354,391.056 242.424,394.783 239.543,398.566 236.713,402.403 233.935,406.295 231.209,410.242 228.538,414.242 225.922,418.296 223.362,422.403 220.86,426.563 218.416,430.776 216.033,435.042 213.71,439.359 211.45,443.728 209.253,448.148 207.121,452.619 205.055,457.14 203.057,461.711 201.127,466.331 199.268,471 197.479,475.717 195.764,480.481 194.122,485.292 192.556,490.15 191.066,495.053 189.655,500 188.324,504.991 187.073,510.026 185.905,515.103 184.82,520.221 183.821,525.379 182.909,530.577 182.084,535.814 181.35,541.088 180.706,546.398 180.155,551.743 179.698,557.122 179.337,562.534 179.073,567.978 178.907,573.451 178.84,578.953 178.876,584.482 179.014,590.037 179.256,595.616 179.604,601.217 180.059,606.839 180.622,612.48 181.296,618.139 182.08,623.813 182.977,629.5 183.989,635.198 185.115,640.906 186.357,646.621 187.718,652.341 189.197,658.064 190.796,663.787 192.517,669.508 194.359,675.225 196.325,680.935 198.415,686.635 200.63,692.323 202.971,697.996 205.438,703.651 208.033,709.285 210.757,714.896 213.608,720.48 216.589,726.034 219.7,731.556 222.94,737.042 226.31,742.488 229.811,747.892 233.442,753.25 237.203,758.559 241.094,763.815 245.115,769.015 249.265,774.155 253.544,779.232 257.951,784.242 262.486,789.182 267.147,794.047 271.933,798.834 276.844,803.54 281.878,808.161 287.033,812.693 292.308,817.133 297.701,821.476 303.211,825.719 308.835,829.859 314.571,833.892 320.417,837.814 326.371,841.622 332.428,845.313 338.588,848.882 344.847,852.327 351.202,855.644 357.649,858.83 364.186,861.883 370.809,864.798 377.514,867.574 384.297,870.206 391.155,872.694 398.083,875.033 405.078,877.223 412.135,879.259 419.25,881.141 426.418,882.866 433.635,884.433 440.896,885.839 448.197,887.083 455.533,888.165 462.898,889.082 470.288,889.833 477.699,890.419 485.124,890.837 492.56,891.089 500,891.172 507.44,891.089 514.876,890.837 522.301,890.419 529.712,889.833 537.102,889.082 544.467,888.165 551.803,887.083 559.104,885.839 566.365,884.433 573.582,882.866 580.75,881.141 587.865,879.259 594.922,877.223 601.917,875.033 608.845,872.694 615.703,870.206 622.486,867.574 629.191,864.798 635.814,861.883 642.351,858.83 648.798,855.644 655.153,852.327 661.412,848.882 667.572,845.313 673.629,841.622 679.583,837.814 685.429,833.892 691.165,829.859 696.789,825.719 702.299,821.476 707.692,817.133 712.967,812.693 718.122,808.161 723.156,803.54 728.067,798.834 732.853,794.047 737.514,789.182 742.049,784.242 746.456,779.232 750.735,774.155 754.885,769.015 758.906,763.815 762.797,758.559 766.558,753.25 770.189,747.892 773.69,742.488 777.06,737.042 780.3,731.556 783.411,726.034 786.392,720.48 789.243,714.896 791.967,709.285 794.562,703.651 797.029,697.996 799.37,692.323 801.585,686.635 803.675,680.935 805.641,675.225 807.483,669.508 809.204,663.787 810.803,658.064 812.282,652.341 813.643,646.621 814.885,640.906 816.011,635.198 817.023,629.5 817.92,623.813 818.704,618.139 819.378,612.48 819.941,606.839 820.396,601.217 820.744,595.616 820.986,590.037 821.124,584.482 821.16,578.953 821.093,573.451 820.927,567.978 820.663,562.534 820.302,557.122 819.845,551.743 819.294,546.398 818.65,541.088 817.916,535.814 817.091,530.577 816.179,525.379 815.18,520.221 814.095,515.103 812.927,510.026 811.676,504.991 810.345,500 " fill="none" stroke="#ffff00" stroke-width="1.5" stroke-dasharray="5 5"/>
  <!-- Cluster Regions -->
  <polygon points="-13.4238,381.001 -13.2473,378.085 -13.0235,375.074 -12.7576,372.054 -12.4588,369.115 -12.1392,366.348 -11.8139,363.839 -11.4991,361.673 -11.2119,359.923 -10.9679,358.651 -10.7804,357.904 -10.6591,357.712 -10.6089,358.087 -10.6298,359.02 -10.717,360.48 -10.8616,362.419 -11.0516,364.772 -11.2733,367.459 -11.5131,370.387 -11.7584,373.459 -11.9991,376.575 -12.2276,379.634 -12.4396,382.543 -12.6331,385.214 -12.8087,387.571 -12.9677,389.55 -13.112,391.1 -13.2432,392.182 -13.3615,392.773 -13.4657,392.86 -13.553,392.445 -13.6189,391.543 -13.6578,390.179 -13.6634,388.39 -13.6295,386.224 -13.5508,383.739 -13.4238,381.001" fill="rgba(255, 200, 100, 0.1)" stroke="rgba(255, 220, 150, 0.5)" stroke-width="1"/>
  <polygon points="426.016,340.184 426.419,340.368 426.845,340.621 427.283,340.936 427.719,341.304 428.14,341.714 428.535,342.154 428.892,342.61 429.2,343.071 429.451,343.521 429.638,343.949 429.754,344.341 429.795,344.685 429.761,344.971 429.651,345.19 429.468,345.335 429.217,345.4 428.905,345.384 428.541,345.286 428.136,345.108 427.703,344.856 427.254,344.538 426.804,344.163 426.368,343.743 425.959,343.29 425.59,342.821 425.273,342.349 425.019,341.889 424.834,341.455 424.725,341.062 424.695,340.721 424.743,340.442 424.868,340.233 425.065,340.101 425.328,340.049 425.648,340.077 426.016,340.184" fill="rgba(100, 100, 255, 0.1)" stroke="rgba(150, 150, 255, 0.5)" stroke-width="1"/>
  <polygon points="356.413,373.819 356.214,373.653 355.973,373.542 355.696,373.489 355.394,373.496 355.074,373.563 354.747,373.687 354.422,373.865 354.109,374.092 353.818,374.36 353.557,374.661 353.335,374.987 353.157,375.327 353.03,375.672 352.957,376.01 352.94,376.333 352.98,376.629 353.076,376.89 353.225,377.109 353.422,377.277 353.662,377.39 353.937,377.445 354.239,377.439 354.56,377.373 354.888,377.249 355.214,377.07 355.529,376.842 355.822,376.572 356.085,376.269 356.309,375.941 356.487,375.598 356.615,375.252 356.688,374.912 356.704,374.59 356.662,374.294 356.564,374.035 356.413,373.819" fill="rgba(255, 200, 100, 0.1)" stroke="rgba(255, 220, 150, 0.5)" stroke-width="1"/>
  <!-- End Cluster Regions -->
  <circle cx="427.81" cy="342.409" r="1.18592" fill="#aabfff"/>
  <circle cx="232.051" cy="628.203" r="1.97591" fill="#ffeea8"/>
  <circle cx="41.392" cy="503.876" r="4.10988" fill="#ffeea8"/>
  <circle cx="512.52" cy="353.057" r="3.21285" fill="#aabfff"/>
  <circle cx="345.948" cy="57.8962" r="2.88496" fill="#aabfff"/>
  <circle cx="390.994" cy="188.045" r="2.28246" fill="#ffeea8"/>
  <circle cx="443.235" cy="344.064" r="1.82951" fill="#ffeea8"/>
  <circle cx="205.301" cy="472.281" r="1.355" fill="#cad8ff"/>
  <circle cx="487.308" cy="919.281" r="1.45327" fill="#ffeea8"/>
  <circle cx="545.029" cy="174.526" r="2.16749" fill="#ffeea8"/>
  <circle cx="308.588" cy="801.689" r="1.53787" fill="#ffeea8"/>
  <circle cx="183.212" cy="492.982" r="1.50539" fill="#ffeea8"/>
  <circle cx="264.733" cy="757.553" r="3.63324" fill="#ffeea8"/>
  <circle cx="314.093" cy="509.798" r="1.13171" fill="#ffeea8"/>
  <circle cx="321.838" cy="576.127" r="1.35301" fill="#f8f7ff"/>
  <circle cx="483.127" cy="26.7324" r="1.07779" fill="#aabfff"/>
  <circle cx="542.522" cy="382.747" r="2.10166" fill="#f8f7ff"/>
  <circle cx="762.099" cy="678.127" r="1.67686" fill="#ffeea8"/>
  <circle cx="532.551" cy="641.942" r="3.48247" fill="#ffeea8"/>
  <circle cx="259.301" cy="374.634" r="1.12957" fill="#ffeea8"/>
  <circle cx="450.362" cy="610.246" r="1.28689" fill="#cad8ff"/>
  <circle cx="251.069" cy="208.86" r="3.03703" fill="#ffeea8"/>
  <circle cx="474.295" cy="221.63" r="1.04784" fill="#ffeea8"/>
  <circle cx="432.863" cy="656.993" r="1.78393" fill="#ffeea8"/>
  <circle cx="321.998" cy="650.527" r="1.29044" fill="#ffeea8"/>
  <circle cx="519.253" cy="576.91" r="5.09157" fill="#cad8ff"/>
  <circle cx="714.552" cy="686.802" r="1.98322" fill="#fff4ea"/>
  <circle cx="455.024" cy="203.355" r="1.33392" fill="#ffeea8"/>
  <circle cx="448.882" cy="765.894" r="1.83424" fill="#ffeea8"/>
  <circle cx="254.861" cy="438.446" r="1.79981" fill="#ffeea8"/>
  <circle cx="733.396" cy="620.756" r="2.58218" fill="#ffeea8"/>
  <circle cx="883.028" cy="581.239" r="2.53284" fill="#ffeea8"/>
  <circle cx="329.475" cy="483.29" r="1.12603" fill="#ffeea8"/>
  <circle cx="321.999" cy="467.619" r="1.3106" fill="#f8f7ff"/>
  <circle cx="259.285" cy="190.692" r="1.10037" fill="#ffeea8"/>
  <circle cx="63.2533" cy="555.416" r="5.47239" fill="#ffeea8"/>
  <circle cx="523.874" cy="532.3" r="1.09537" fill="#cad8ff"/>
  <circle cx="385.873" cy="223.224" r="1.42491" fill="#ffeea8"/>
  <circle cx="399.985" cy="314.819" r="3.89193" fill="#ffeea8"/>
  <circle cx="521.616" cy="373.892" r="1.23793" fill="#ffeea8"/>
  <circle cx="512.984" cy="108.504" r="1.17283" fill="#aabfff"/>
  <circle cx="586.448" cy="606.959" r="1.16669" fill="#ffeea8"/>
  <circle cx="636.572" cy="199.4" r="1.23318" fill="#ffeea8"/>
  <circle cx="349.985" cy="791.451" r="2.60533" fill="#ffeea8"/>
  <circle cx="161.568" cy="841.351" r="1.08637" fill="#cad8ff"/>
  <circle cx="565.195" cy="318.971" r="1.01766" fill="#cad8ff"/>
  <circle cx="447.079" cy="640.496" r="3.87378" fill="#aabfff"/>
  <circle cx="873.319" cy="756.136" r="3.58762" fill="#ffeea8"/>
  <circle cx="499.897" cy="1.16718" r="1.77889" fill="#ffeea8"/>
  <circle cx="244.14" cy="835.086" r="3.28854" fill="#aabfff"/>
  <circle cx="457.697" cy="258.59" r="1.1961" fill="#ffeea8"/>
  <circle cx="268.652" cy="267.981" r="2.0532" fill="#ffeea8"/>
  <circle cx="781.93" cy="487.128" r="1.64031" fill="#ffeea8"/>
  <circle cx="531.615" cy="322.764" r="1.0159" fill="#ffeea8"/>
  <circle cx="343.758" cy="342.916" r="3.44299" fill="#ffeea8"/>
  <circle cx="271.301" cy="240.711" r="2.00281" fill="#ffeea8"/>
  <circle cx="222.416" cy="687.07" r="1.38024" fill="#ffeea8"/>
  <circle cx="719.47" cy="451.512" r="1.09096" fill="#ffeea8"/>
  <circle cx="419.843" cy="497.56" r="1.85293" fill="#ffeea8"/>
  <circle cx="771.114" cy="394.512" r="1.09168" fill="#ffeea8"/>
  <circle cx="412.34" cy="826.797" r="1.02968" fill="#f8f7ff"/>
  <circle cx="584.009" cy="488.332" r="2.09228" fill="#ffeea8"/>
  <circle cx="440.673" cy="929.818" r="1.58859" fill="#ffeea8"/>
  <circle cx="679.471" cy="666.507" r="4.87498" fill="#ffeea8"/>
  <circle cx="331.818" cy="769.311" r="1.50579" fill="#ffeea8"/>
  <circle cx="726.091" cy="415.212" r="1.22669" fill="#f8f7ff"/>
  <circle cx="775.461" cy="321.76" r="1.18774" fill="#ffeea8"/>
  <circle cx="256.84" cy="582.895" r="2.63183" fill="#ffeea8"/>
  <circle cx="946.563" cy="428.265" r="3.59115" fill="#aabfff"/>
  <circle cx="689.087" cy="699.816" r="4.7197" fill="#ffeea8"/>
  <circle cx="404.427" cy="379.479" r="6.58639" fill="#ffeea8"/>
  <circle cx="643.467" cy="250.803" r="2.33557" fill="#ffeea8"/>
  <circle cx="283.255" cy="574.338" r="1.01058" fill="#ffeea8"/>
  <circle cx="463.64" cy="476.089" r="3.11386" fill="#ffeea8"/>
  <circle cx="606.909" cy="151.618" r="5.06522" fill="#ffeea8"/>
  <circle cx="131.69" cy="318.482" r="1.28188" fill="#ffeea8"/>
  <circle cx="609.253" cy="654.354" r="1.50324" fill="#ffeea8"/>
  <circle cx="532.488" cy="359.725" r="1.37616" fill="#ffeea8"/>
  <circle cx="78.4888" cy="702.611" r="3.46852" fill="#ffeea8"/>
  <circle cx="418.311" cy="597.729" r="2.18679" fill="#ffeea8"/>
  <circle cx="170.184" cy="386.55" r="2.25623" fill="#ffeea8"/>
  <circle cx="727.222" cy="534.447" r="1.33591" fill="#ffeea8"/>
  <circle cx="820.998" cy="391.167" r="3.65541" fill="#ffeea8"/>
  <circle cx="303.272" cy="480.025" r="2.13915" fill="#ffeea8"/>
  <circle cx="582.075" cy="789.164" r="2.34866" fill="#ffeea8"/>
  <circle cx="656.275" cy="792.196" r="4.06924" fill="#ffeea8"/>
  <circle cx="397.418" cy="668.673" r="1.84883" fill="#f8f7ff"/>
  <circle cx="425.531" cy="828.261" r="1.76252" fill="#ffeea8"/>
  <circle cx="549.621" cy="333.588" r="1.85098" fill="#cad8ff"/>
  <circle cx="250.282" cy="502.497" r="2.39301" fill="#cad8ff"/>
  <circle cx="529.206" cy="237.158" r="1.60658" fill="#ffeea8"/>
  <circle cx="345.194" cy="954.635" r="1.03048" fill="#ffeea8"/>
  <circle cx="260.642" cy="201.184" r="1.13744" fill="#cad8ff"/>
  <circle cx="549.363" cy="399.86" r="2.20805" fill="#ffeea8"/>
  <circle cx="438.845" cy="118.549" r="1.75992" fill="#ffeea8"/>
  <circle cx="844.154" cy="536.757" r="1.50777" fill="#ffeea8"/>
  <circle cx="629.516" cy="893.369" r="1.17801" fill="#fff4ea"/>
  <circle cx="418.03" cy="482.641" r="1.10886" fill="#ffeea8"/>
  <circle cx="706.471" cy="749.271" r="3.18911" fill="#fff4ea"/>
  <circle cx="489.158" cy="350.929" r="1.08253" fill="#ffeea8"/>
  <circle cx="61.0351" cy="394.884" r="1.70585" fill="#f8f7ff"/>
  <circle cx="235.11" cy="830.804" r="1.06341" fill="#ffeea8"/>
  <circle cx="174.51" cy="308.938" r="4.06237" fill="#aabfff"/>
  <circle cx="787.433" cy="540.832" r="1.74141" fill="#aabfff"/>
  <circle cx="713.283" cy="277.474" r="1.11312" fill="#cad8ff"/>
  <circle cx="619.644" cy="451.501" r="3.37815" fill="#fff4ea"/>
  <circle cx="311.631" cy="653.783" r="1.10482" fill="#ffeea8"/>
  <circle cx="778.877" cy="647.973" r="1.14299" fill="#ffeea8"/>
  <circle cx="573.695" cy="544.234" r="1.31494" fill="#ffeea8"/>
  <circle cx="131.226" cy="773.555" r="1.31181" fill="#ffeea8"/>
  <circle cx="955.792" cy="538.971" r="1.15002" fill="#ffeea8"/>
  <circle cx="316.723" cy="453.105" r="1.39088" fill="#ffeea8"/>
  <circle cx="648.413" cy="736.263" r="1.81022" fill="#ffeea8"/>
  <circle cx="629.894" cy="514.837" r="1.9978" fill="#ffeea8"/>
  <circle cx="573.903" cy="18.7322" r="4.57779" fill="#ffeea8"/>
  <circle cx="624.609" cy="848.167" r="1.3418" fill="#ffeea8"/>
  <circle cx="729.917" cy="503.124" r="1.1329" fill="#ffeea8"/>
  <circle cx="797.93" cy="802.056" r="2.12881" fill="#ffeea8"/>
  <circle cx="848.871" cy="243.423" r="3.10785" fill="#ffeea8"/>
  <circle cx="805.635" cy="599.264" r="1.28541" fill="#aabfff"/>
  <circle cx="265.918" cy="598.529" r="1.36698" fill="#ffeea8"/>
  <circle cx="417.661" cy="265.788" r="1.89565" fill="#ffeea8"/>
  <circle cx="873.95" cy="285.246" r="2.7477" fill="#ffeea8"/>
  <circle cx="416.905" cy="244.239" r="2.6621" fill="#ffeea8"/>
  <circle cx="548.7" cy="580.323" r="1.57076" fill="#aabfff"/>
  <circle cx="57.6718" cy="510.011" r="2.86605" fill="#ffeea8"/>
  <circle cx="259.766" cy="697.797" r="1.66007" fill="#ffeea8"/>
  <circle cx="433.672" cy="357.414" r="3.69002" fill="#ffeea8"/>
  <circle cx="232.016" cy="627.02" r="1.92723" fill="#ffeea8"/>
  <circle cx="40.6986" cy="370.497" r="3.32239" fill="#ffeea8"/>
  <circle cx="589.258" cy="441.461" r="3.51221" fill="#cad8ff"/>
  <circle cx="745.859" cy="468.704" r="1.15246" fill="#ffeea8"/>
  <circle cx="711.777" cy="366.203" r="2.29991" fill="#ffeea8"/>
  <circle cx="151.477" cy="331.698" r="4.99081" fill="#aabfff"/>
  <circle cx="667.089" cy="763.181" r="1.32838" fill="#f8f7ff"/>
  <circle cx="868.541" cy="549.665" r="1.49992" fill="#cad8ff"/>
  <circle cx="254.474" cy="363.206" r="3.61574" fill="#aabfff"/>
  <circle cx="554.758" cy="197.55" r="1.14759" fill="#ffeea8"/>
  <circle cx="509.182" cy="219.966" r="4.4734" fill="#ffeea8"/>
  <circle cx="720.311" cy="803.753" r="3.24505" fill="#fff4ea"/>
  <circle cx="143.322" cy="679.479" r="1.54048" fill="#ffeea8"/>
  <circle cx="417.385" cy="662.929" r="1.49703" fill="#ffeea8"/>
  <circle cx="307.831" cy="919.631" r="1.10002" fill="#ffeea8"/>
  <circle cx="641.899" cy="526.057" r="1.48274" fill="#ffeea8"/>
  <circle cx="159.366" cy="768.146" r="3.98804" fill="#ffeea8"/>
  <circle cx="131.501" cy="315.686" r="1.48952" fill="#ffeea8"/>
  <circle cx="834.4" cy="211.918" r="2.81416" fill="#f8f7ff"/>
  <circle cx="259.271" cy="733.822" r="1.70277" fill="#ffeea8"/>
  <circle cx="280.987" cy="106.683" r="2.01734" fill="#aabfff"/>
  <circle cx="292.003" cy="588.031" r="2.12504" fill="#ffeea8"/>
  <circle cx="356.061" cy="133.365" r="4.06167" fill="#ffeea8"/>
  <circle cx="213.58" cy="675.365" r="1.0042" fill="#ffeea8"/>
  <circle cx="453.619" cy="485.702" r="2.7629" fill="#ffeea8"/>
  <circle cx="781.572" cy="604.606" r="1.53157" fill="#ffeea8"/>
  <circle cx="648.692" cy="521.347" r="1.59552" fill="#f8f7ff"/>
  <circle cx="447.635" cy="996.503" r="1.30279" fill="#f8f7ff"/>
  <circle cx="610.497" cy="389.002" r="2.59996" fill="#ffeea8"/>
  <circle cx="626.217" cy="763.796" r="3.93727" fill="#aabfff"/>
  <circle cx="249.665" cy="503.169" r="1.13674" fill="#ffeea8"/>
  <circle cx="714.123" cy="363.206" r="1.02304" fill="#ffeea8"/>
  <circle cx="509.995" cy="671.751" r="1.16505" fill="#cad8ff"/>
  <circle cx="120.109" cy="292.862" r="4.74476" fill="#aabfff"/>
  <circle cx="806.623" cy="377.42" r="4.80442" fill="#aabfff"/>
  <circle cx="459.003" cy="634.836" r="1.633" fill="#ffeea8"/>
  <circle cx="615.605" cy="833.297" r="1.88168" fill="#ffeea8"/>
  <circle cx="239.964" cy="248.144" r="2.14772" fill="#ffeea8"/>
  <circle cx="576.891" cy="946.324" r="1.14026" fill="#ffeea8"/>
  <circle cx="328.939" cy="749.492" r="1.1553" fill="#cad8ff"/>
  <circle cx="293.378" cy="176.333" r="1.38803" fill="#ffeea8"/>
  <circle cx="602.349" cy="923.676" r="1.26128" fill="#aabfff"/>
  <circle cx="576.816" cy="672.211" r="5.34553" fill="#ffeea8"/>
  <circle cx="555.745" cy="174.637" r="1.39381" fill="#ffeea8"/>
  <circle cx="279.701" cy="176.087" r="1.43354" fill="#ffeea8"/>
  <circle cx="352.065" cy="215.001" r="1.47111" fill="#ffeea8"/>
  <circle cx="115.313" cy="692.092" r="1.78477" fill="#fff4ea"/>
  <circle cx="297.018" cy="250.702" r="1.06228" fill="#ffeea8"/>
  <circle cx="728.211" cy="580.53" r="1.49933" fill="#ffeea8"/>
  <circle cx="502.564" cy="419.528" r="2.13077" fill="#ffeea8"/>
  <circle cx="624.791" cy="166.029" r="4.92724" fill="#ffeea8"/>
  <circle cx="720.609" cy="345.362" r="1.88554" fill="#ffeea8"/>
  <circle cx="522.724" cy="717.162" r="2.1015" fill="#ffeea8"/>
  <circle cx="319.392" cy="317.873" r="2.45537" fill="#aabfff"/>
  <circle cx="581.743" cy="827.32" r="1.21122" fill="#ffeea8"/>
  <circle cx="480.891" cy="512.083" r="2.34061" fill="#cad8ff"/>
  <circle cx="300.387" cy="338.343" r="5.24596" fill="#aabfff"/>
  <circle cx="474.544" cy="190.551" r="1.174" fill="#ffeea8"/>
  <circle cx="791.195" cy="280.761" r="1.33317" fill="#ffeea8"/>
  <circle cx="644.277" cy="813.778" r="1.60108" fill="#ffeea8"/>
  <circle cx="240.788" cy="538.012" r="4.58086" fill="#ffeea8"/>
  <circle cx="676.912" cy="74.6445" r="1.49936" fill="#ffeea8"/>
  <circle cx="159.109" cy="327.963" r="2.33148" fill="#ffeea8"/>
  <circle cx="541.43" cy="359.677" r="2.21954" fill="#fff4ea"/>
  <circle cx="417.384" cy="947.872" r="1.29101" fill="#cad8ff"/>
  <circle cx="489.644" cy="748.901" r="3.39213" fill="#ffeea8"/>
  <circle cx="834.118" cy="210.012" r="2.55278" fill="#ffeea8"/>
  <circle cx="752.417" cy="264.009" r="1.20158" fill="#ffeea8"/>
  <circle cx="527.363" cy="729.663" r="1.09732" fill="#ffeea8"/>
  <circle cx="327.883" cy="112.48" r="1.09039" fill="#ffeea8"/>
  <circle cx="591.14" cy="394.265" r="1.00413" fill="#ffeea8"/>
  <circle cx="305.503" cy="584.968" r="1.10188" fill="#f8f7ff"/>
  <circle cx="372.659" cy="379.031" r="1.9057" fill="#ffeea8"/>
  <circle cx="661.192" cy="411.046" r="1.31455" fill="#ffeea8"/>
  <circle cx="427.085" cy="341.872" r="1.23432" fill="#ffeea8"/>
  <circle cx="727.078" cy="441.21" r="5.18604" fill="#ffeea8"/>
  <circle cx="556.565" cy="869.671" r="4.2402" fill="#ffeea8"/>
  <circle cx="178.848" cy="511.398" r="3.05754" fill="#ffeea8"/>
  <circle cx="665.768" cy="716.294" r="4.07626" fill="#ffeea8"/>
  <circle cx="410.878" cy="150.782" r="2.22972" fill="#ffeea8"/>
  <circle cx="609.052" cy="164.363" r="3.95807" fill="#aabfff"/>
  <circle cx="348.227" cy="752.061" r="1.35503" fill="#ffeea8"/>
  <circle cx="392.193" cy="852.197" r="1.82806" fill="#ffeea8"/>
  <circle cx="685.392" cy="190.94" r="1.68949" fill="#aabfff"/>
  <circle cx="79.4362" cy="296.321" r="1.6674" fill="#ffeea8"/>
  <circle cx="469.13" cy="74.6122" r="2.8876" fill="#ffeea8"/>
  <circle cx="537.941" cy="527.556" r="2.52337" fill="#ffeea8"/>
  <circle cx="788.436" cy="297.105" r="2.33164" fill="#ffeea8"/>
  <circle cx="775.771" cy="433.998" r="2.06532" fill="#ffeea8"/>
  <circle cx="260.88" cy="201.283" r="4.10439" fill="#ffeea8"/>
  <circle cx="272.282" cy="293.355" r="1.24278" fill="#ffeea8"/>
  <circle cx="485.707" cy="752.221" r="1.14916" fill="#ffeea8"/>
  <circle cx="244.518" cy="352.483" r="3.47196" fill="#ffeea8"/>
  <circle cx="848.629" cy="154.482" r="1.04495" fill="#ffeea8"/>
  <circle cx="746.374" cy="575.218" r="1.04342" fill="#ffeea8"/>
  <circle cx="678.514" cy="870.046" r="1.9502" fill="#ffeea8"/>
  <circle cx="660.371" cy="88.3916" r="1.34466" fill="#ffeea8"/>
  <circle cx="474.559" cy="517.593" r="1.57871" fill="#ffeea8"/>
  <circle cx="492.092" cy="584.108" r="1.86242" fill="#ffeea8"/>
  <circle cx="771.398" cy="648.162" r="2.05151" fill="#ffeea8"/>
  <circle cx="445.128" cy="728.296" r="1.00881" fill="#ffeea8"/>
  <circle cx="139.788" cy="319.006" r="1.29729" fill="#ffeea8"/>
  <circle cx="116.44" cy="573.643" r="1.44736" fill="#aabfff"/>
  <circle cx="113.105" cy="644.106" r="3.10331" fill="#ffeea8"/>
  <circle cx="705.859" cy="360.178" r="4.53572" fill="#ffeea8"/>
  <circle cx="418.928" cy="413.974" r="1.94481" fill="#ffeea8"/>
  <circle cx="681.764" cy="210.907" r="1.17707" fill="#ffeea8"/>
  <circle cx="477.631" cy="619.851" r="1.65081" fill="#ffeea8"/>
  <circle cx="853.246" cy="631.975" r="3.1763" fill="#ffeea8"/>
  <circle cx="527.855" cy="50.6797" r="1.86014" fill="#aabfff"/>
  <circle cx="706.288" cy="778.686" r="1.62694" fill="#ffeea8"/>
  <circle cx="885.279" cy="499.462" r="3.84858" fill="#ffeea8"/>
  <circle cx="222.628" cy="668.184" r="6.51377" fill="#aabfff"/>
  <circle cx="472.467" cy="595.119" r="1.71762" fill="#ffeea8"/>
  <circle cx="438.511" cy="269.628" r="7.02734" fill="#aabfff"/>
  <circle cx="414.881" cy="565.41" r="1.01984" fill="#ffeea8"/>
  <circle cx="665.697" cy="556.749" r="4.93256" fill="#ffeea8"/>
  <circle cx="640.004" cy="762.219" r="1.16838" fill="#ffeea8"/>
  <circle cx="428.264" cy="212.357" r="1.08633" fill="#ffeea8"/>
  <circle cx="71.8753" cy="577.815" r="1.76458" fill="#ffeea8"/>
  <circle cx="550.877" cy="947.638" r="2.52036" fill="#ffeea8"/>
  <circle cx="526.364" cy="867.944" r="3.09886" fill="#ffeea8"/>
  <circle cx="610.049" cy="687.894" r="5.83493" fill="#ffeea8"/>
  <circle cx="304.988" cy="485.518" r="2.4402" fill="#ffeea8"/>
  <circle cx="216.519" cy="802.523" r="2.09664" fill="#ffeea8"/>
  <circle cx="260.375" cy="397.775" r="1.69014" fill="#ffeea8"/>
  <circle cx="495.229" cy="741.809" r="5.25832" fill="#ffeea8"/>
  <circle cx="558.486" cy="652.468" r="4.02824" fill="#ffeea8"/>
  <circle cx="497.376" cy="866.884" r="3.28244" fill="#ffeea8"/>
  <circle cx="436.689" cy="323.691" r="1.23939" fill="#ffeea8"/>
  <circle cx="336.386" cy="793.329" r="1.83588" fill="#cad8ff"/>
  <circle cx="476.801" cy="688.15" r="2.9449" fill="#ffeea8"/>
  <circle cx="429.608" cy="382.538" r="2.74592" fill="#ffeea8"/>
  <circle cx="755.555" cy="721.304" r="2.90152" fill="#cad8ff"/>
  <circle cx="530.421" cy="347.457" r="2.10098" fill="#ffeea8"/>
  <circle cx="345.417" cy="480.693" r="3.14467" fill="#aabfff"/>
  <circle cx="731.947" cy="296.783" r="2.48955" fill="#ffeea8"/>
  <circle cx="430.879" cy="196.672" r="1.96187" fill="#f8f7ff"/>
  <circle cx="339.615" cy="214.434" r="2.84417" fill="#ffeea8"/>
  <circle cx="614.56" cy="455.931" r="3.5244" fill="#ffeea8"/>
  <circle cx="222.568" cy="386.693" r="2.16694" fill="#aabfff"/>
  <circle cx="940.856" cy="546.726" r="1.35981" fill="#ffeea8"/>
  <circle cx="686.583" cy="721.139" r="1.47681" fill="#ffeea8"/>
  <circle cx="386.349" cy="64.5799" r="1.26863" fill="#f8f7ff"/>
  <circle cx="534.175" cy="379.046" r="1.46883" fill="#ffeea8"/>
  <circle cx="337.529" cy="69.5216" r="4.57146" fill="#ffeea8"/>
  <circle cx="861.598" cy="800.262" r="1.37184" fill="#ffeea8"/>
  <circle cx="828.514" cy="578.533" r="5.68244" fill="#f8f7ff"/>
  <circle cx="722.984" cy="450.436" r="1.59842" fill="#ffeea8"/>
  <circle cx="547.103" cy="524.229" r="1.48796" fill="#ffeea8"/>
  <circle cx="373.179" cy="309.467" r="1.42716" fill="#ffeea8"/>
  <circle cx="707.86" cy="908.46" r="1.20409" fill="#ffeea8"/>
  <circle cx="598.827" cy="93.0163" r="1.50428" fill="#ffeea8"/>
  <circle cx="805.029" cy="523.316" r="1.31103" fill="#cad8ff"/>
  <circle cx="179.213" cy="335.836" r="1.5783" fill="#ffeea8"/>
  <circle cx="486.291" cy="807.955" r="1.97527" fill="#ffeea8"/>
  <circle cx="156.396" cy="502.114" r="1.19009" fill="#cad8ff"/>
  <circle cx="511.667" cy="644.731" r="2.44454" fill="#ffeea8"/>
  <circle cx="215.184" cy="724.437" r="2.60909" fill="#f8f7ff"/>
  <circle cx="791.158" cy="771.261" r="1.34107" fill="#ffeea8"/>
  <circle cx="663.296" cy="611.861" r="1.56633" fill="#aabfff"/>
  <circle cx="651.017" cy="627.603" r="2.80339" fill="#ffeea8"/>
  <circle cx="353.709" cy="430.429" r="3.7575" fill="#ffeea8"/>
  <circle cx="150.575" cy="369.399" r="1.8999" fill="#ffeea8"/>
  <circle cx="299.787" cy="245.117" r="3.79501" fill="#ffeea8"/>
  <circle cx="807.324" cy="543.658" r="2.5557" fill="#ffeea8"/>
  <circle cx="457.973" cy="396.135" r="1.58788" fill="#ffeea8"/>
  <circle cx="380.784" cy="404.557" r="1.07689" fill="#ffeea8"/>
  <circle cx="543.542" cy="751.914" r="1.36506" fill="#ffeea8"/>
  <circle cx="365.967" cy="281.844" r="2.2127" fill="#cad8ff"/>
  <circle cx="515.02" cy="250.081" r="3.80459" fill="#ffeea8"/>
  <circle cx="507.831" cy="976.94" r="1.26218" fill="#ffeea8"/>
  <circle cx="392.147" cy="583.773" r="2.08318" fill="#ffeea8"/>
  <circle cx="205.489" cy="285.652" r="1.95761" fill="#cad8ff"/>
  <circle cx="864.408" cy="688.929" r="1.13874" fill="#ffeea8"/>
  <circle cx="684.352" cy="845.123" r="1.59721" fill="#cad8ff"/>
  <circle cx="97.8043" cy="253.453" r="2.45249" fill="#ffeea8"/>
  <circle cx="416.311" cy="100.648" r="2.77034" fill="#ffeea8"/>
  <circle cx="294.411" cy="436.118" r="4.32154" fill="#ffeea8"/>
  <circle cx="711.945" cy="845.769" r="1.09415" fill="#ffeea8"/>
  <circle cx="580.686" cy="691.989" r="1.30421" fill="#ffeea8"/>
  <circle cx="570.607" cy="472.532" r="1.80811" fill="#ffeea8"/>
  <circle cx="219.745" cy="479.617" r="1.7162" fill="#f8f7ff"/>
  <circle cx="185.831" cy="313.367" r="1.10408" fill="#ffeea8"/>
  <circle cx="700.325" cy="267.348" r="1.41499" fill="#ffeea8"/>
  <circle cx="733.012" cy="280.234" r="1.39639" fill="#ffeea8"/>
  <circle cx="532.327" cy="467.223" r="1.99097" fill="#ffeea8"/>
  <circle cx="343.534" cy="364.933" r="3.13773" fill="#ffeea8"/>
  <circle cx="252.388" cy="237.439" r="1.74139" fill="#ffeea8"/>
  <circle cx="125.784" cy="649.072" r="1.60843" fill="#ffeea8"/>
  <circle cx="688.171" cy="525.073" r="5.45782" fill="#ffeea8"/>
  <circle cx="119.768" cy="721.989" r="1.21674" fill="#ffeea8"/>
  <circle cx="431.446" cy="346.789" r="4.4987" fill="#cad8ff"/>
  <circle cx="712.606" cy="817.485" r="1.70895" fill="#aabfff"/>
  <circle cx="108.798" cy="651.049" r="1.08192" fill="#fff4ea"/>
  <circle cx="407.505" cy="279.469" r="1.67431" fill="#ffeea8"/>
  <circle cx="432.969" cy="598.969" r="2.80995" fill="#ffeea8"/>
  <circle cx="805.83" cy="437.446" r="1.07134" fill="#cad8ff"/>
  <circle cx="211.401" cy="658.853" r="1.82372" fill="#ffeea8"/>
  <circle cx="582.483" cy="343.923" r="1.93284" fill="#ffeea8"/>
  <circle cx="427.498" cy="151.398" r="1.1628" fill="#ffeea8"/>
  <circle cx="467.455" cy="668.615" r="1.97322" fill="#f8f7ff"/>
  <circle cx="306.22" cy="322.291" r="1.27228" fill="#ffeea8"/>
  <circle cx="856.499" cy="828.442" r="1.26656" fill="#ffeea8"/>
  <circle cx="227.748" cy="401.084" r="1.31729" fill="#ffeea8"/>
  <circle cx="292.549" cy="730.775" r="1.03637" fill="#aabfff"/>
  <circle cx="350.025" cy="564.605" r="3.24416" fill="#ffeea8"/>
  <circle cx="106.188" cy="651.548" r="1.41246" fill="#aabfff"/>
  <circle cx="194.836" cy="599.977" r="1.68335" fill="#ffeea8"/>
  <circle cx="608.146" cy="456.745" r="3.72115" fill="#ffeea8"/>
  <circle cx="742.008" cy="718.442" r="2.23479" fill="#ffeea8"/>
  <circle cx="606.131" cy="212.599" r="3.67885" fill="#ffeea8"/>
  <circle cx="616.655" cy="802.254" r="1.05916" fill="#ffeea8"/>
  <circle cx="539.505" cy="477.08" r="2.36682" fill="#ffeea8"/>
  <circle cx="783.082" cy="122.361" r="2.38501" fill="#aabfff"/>
  <circle cx="220.762" cy="483.886" r="1.56365" fill="#aabfff"/>
  <circle cx="554.381" cy="258.641" r="4.29355" fill="#aabfff"/>
  <circle cx="484.949" cy="267.618" r="1.70083" fill="#ffeea8"/>
  <circle cx="532.917" cy="603.039" r="1.69484" fill="#cad8ff"/>
  <circle cx="465.028" cy="825.901" r="2.09411" fill="#ffeea8"/>
  <circle cx="307.36" cy="411.671" r="2.10852" fill="#aabfff"/>
  <circle cx="457.343" cy="598.449" r="1.2547" fill="#ffd2a1"/>
  <circle cx="659.937" cy="690.154" r="1.38831" fill="#cad8ff"/>
  <circle cx="955.338" cy="624.311" r="1.28605" fill="#f8f7ff"/>
  <circle cx="896.433" cy="573.067" r="1.4816" fill="#ffeea8"/>
  <circle cx="664.76" cy="199.976" r="2.31795" fill="#aabfff"/>
  <circle cx="542.498" cy="129.843" r="4.91203" fill="#ffeea8"/>
  <circle cx="488.695" cy="997.717" r="2.45315" fill="#ffeea8"/>
  <circle cx="434.337" cy="662.286" r="1.01174" fill="#ffeea8"/>
  <circle cx="227.682" cy="223.466" r="1.20304" fill="#ffeea8"/>
  <circle cx="629.524" cy="313.938" r="3.67737" fill="#cad8ff"/>
  <circle cx="389.674" cy="685.765" r="2.41886" fill="#ffeea8"/>
  <circle cx="325.043" cy="185.361" r="1.38818" fill="#ffeea8"/>
  <circle cx="556.549" cy="425.747" r="3.59088" fill="#ffeea8"/>
  <circle cx="496.833" cy="930.59" r="2.95201" fill="#aabfff"/>
  <circle cx="411.342" cy="311.95" r="2.89232" fill="#ffeea8"/>
  <circle cx="618.509" cy="441" r="4.1979" fill="#aabfff"/>
  <circle cx="441.351" cy="519.893" r="1.08602" fill="#ffeea8"/>
  <circle cx="753.335" cy="276.648" r="1.47215" fill="#ffeea8"/>
  <circle cx="882.057" cy="557.123" r="1.98518" fill="#ffeea8"/>
  <circle cx="453.274" cy="696.792" r="2.15594" fill="#ffeea8"/>
  <circle cx="586.762" cy="546.029" r="1.46572" fill="#ffeea8"/>
  <circle cx="105.415" cy="479.567" r="1.64864" fill="#ffeea8"/>
  <circle cx="645.658" cy="664.032" r="1.45366" fill="#aabfff"/>
  <circle cx="426.293" cy="273.836" r="1.90338" fill="#ffeea8"/>
  <circle cx="737.228" cy="867.712" r="1.50225" fill="#ffeea8"/>
  <circle cx="762.678" cy="747.379" r="1.49675" fill="#cad8ff"/>
  <circle cx="504.124" cy="410.722" r="3.18713" fill="#ffeea8"/>
  <circle cx="430.544" cy="434.147" r="2.90574" fill="#ffeea8"/>
  <circle cx="465.499" cy="430.505" r="1.31601" fill="#f8f7ff"/>
  <circle cx="638.089" cy="243.069" r="1.46824" fill="#ffeea8"/>
  <circle cx="560.646" cy="421.593" r="1.45384" fill="#ffeea8"/>
  <circle cx="249.772" cy="479.208" r="2.30071" fill="#cad8ff"/>
  <circle cx="637.279" cy="900.968" r="2.42509" fill="#ffeea8"/>
  <circle cx="555.135" cy="730.865" r="2.57258" fill="#aabfff"/>
  <circle cx="724.048" cy="536.263" r="1.32135" fill="#cad8ff"/>
  <circle cx="494.135" cy="270.796" r="1.75327" fill="#ffeea8"/>
  <circle cx="691.637" cy="189.891" r="1.05006" fill="#ffeea8"/>
  <circle cx="420.643" cy="519.672" r="2.91244" fill="#ffeea8"/>
  <circle cx="361.842" cy="622.34" r="1.22291" fill="#ffeea8"/>
  <circle cx="639.297" cy="376.287" r="1.98276" fill="#ffeea8"/>
  <circle cx="683.749" cy="691.436" r="3.08205" fill="#fff4ea"/>
  <circle cx="435.177" cy="739.187" r="2.69372" fill="#ffeea8"/>
  <circle cx="646.19" cy="800.163" r="1.12813" fill="#ffeea8"/>
  <circle cx="704.192" cy="379.241" r="1.24367" fill="#fff4ea"/>
  <circle cx="286.362" cy="514.796" r="2.04981" fill="#ffeea8"/>
  <circle cx="252.371" cy="235.173" r="1.41543" fill="#aabfff"/>
  <circle cx="787.526" cy="193.877" r="1.54394" fill="#cad8ff"/>
  <circle cx="165.003" cy="591.033" r="1.15139" fill="#ffeea8"/>
  <circle cx="241.758" cy="747" r="1.92256" fill="#ffeea8"/>
  <circle cx="453.469" cy="505.726" r="1.21675" fill="#ffeea8"/>
  <circle cx="836.567" cy="669.45" r="1.0943" fill="#ffeea8"/>
  <circle cx="782.352" cy="602.127" r="2.84739" fill="#ffeea8"/>
  <circle cx="717.282" cy="804.347" r="1.47122" fill="#ffeea8"/>
  <circle cx="729.401" cy="818.953" r="1.11627" fill="#ffeea8"/>
  <circle cx="165.511" cy="446.386" r="2.43189" fill="#ffeea8"/>
  <circle cx="224.044" cy="530.443" r="2.22881" fill="#ffeea8"/>
  <circle cx="118.413" cy="590.409" r="1.6558" fill="#ffeea8"/>
  <circle cx="554.517" cy="525.213" r="1.96032" fill="#cad8ff"/>
  <circle cx="916.237" cy="440.3" r="1.51787" fill="#ffeea8"/>
  <circle cx="151.005" cy="203.323" r="1.43621" fill="#ffeea8"/>
  <circle cx="325.135" cy="455.764" r="1.57906" fill="#ffeea8"/>
  <circle cx="523.081" cy="271.654" r="1.44189" fill="#ffeea8"/>
  <circle cx="913.574" cy="523.363" r="1.10719" fill="#aabfff"/>
  <circle cx="858.197" cy="346.011" r="1.08019" fill="#ffeea8"/>
  <circle cx="357.088" cy="437.529" r="2.10283" fill="#ffeea8"/>
  <circle cx="110.383" cy="265.751" r="1.92871" fill="#ffeea8"/>
  <circle cx="727.091" cy="698.05" r="2.56902" fill="#ffeea8"/>
  <circle cx="500.984" cy="396.114" r="3.47126" fill="#ffeea8"/>
  <circle cx="132.475" cy="255.959" r="1.11733" fill="#ffeea8"/>
  <circle cx="193.918" cy="466.382" r="1.59685" fill="#f8f7ff"/>
  <circle cx="776.315" cy="506.481" r="1.04349" fill="#ffeea8"/>
  <circle cx="523.741" cy="648.292" r="1.12139" fill="#cad8ff"/>
  <circle cx="260.421" cy="595.61" r="1.28363" fill="#ffeea8"/>
  <circle cx="816.768" cy="391.819" r="3.00786" fill="#aabfff"/>
  <circle cx="146.322" cy="340.885" r="2.24501" fill="#ffeea8"/>
  <circle cx="784.806" cy="268.336" r="1.88292" fill="#ffeea8"/>
  <circle cx="646.136" cy="327.195" r="2.83358" fill="#aabfff"/>
  <circle cx="101.122" cy="764.634" r="1.38769" fill="#ffeea8"/>
  <circle cx="348.215" cy="556.324" r="1.10359" fill="#cad8ff"/>
  <circle cx="436.327" cy="173.185" r="2.63952" fill="#ffeea8"/>
  <circle cx="418.033" cy="635.009" r="1.47431" fill="#ffeea8"/>
  <circle cx="330.961" cy="470.801" r="1.11027" fill="#ffeea8"/>
  <circle cx="498.073" cy="727.924" r="1.03134" fill="#fff4ea"/>
  <circle cx="593.9" cy="549.498" r="1.36375" fill="#cad8ff"/>
  <circle cx="329.447" cy="183.172" r="2.26092" fill="#ffeea8"/>
  <circle cx="483.928" cy="699.753" r="1.55607" fill="#ffeea8"/>
  <circle cx="577.455" cy="645.404" r="1.50716" fill="#ffeea8"/>
  <circle cx="649.517" cy="891.561" r="2.31027" fill="#ffeea8"/>
  <circle cx="836.263" cy="683.841" r="3.73429" fill="#aabfff"/>
  <circle cx="117.596" cy="620.264" r="1.51047" fill="#ffeea8"/>
  <circle cx="520.617" cy="118.276" r="1.00811" fill="#ffeea8"/>
  <circle cx="890.43" cy="542.3" r="1.52281" fill="#ffeea8"/>
  <circle cx="440.132" cy="434.44" r="3.10871" fill="#ffeea8"/>
  <circle cx="534.836" cy="895.309" r="2.55238" fill="#aabfff"/>
  <circle cx="477.674" cy="752.196" r="2.81922" fill="#ffeea8"/>
  <circle cx="302.831" cy="236.421" r="2.9395" fill="#ffeea8"/>
  <circle cx="212.414" cy="517.174" r="2.96495" fill="#cad8ff"/>
  <circle cx="859.454" cy="315.485" r="1.2352" fill="#ffeea8"/>
  <circle cx="420.034" cy="663.327" r="1.40277" fill="#ffeea8"/>
  <circle cx="405.078" cy="137.372" r="2.4301" fill="#aabfff"/>
  <circle cx="306.059" cy="678.834" r="1.92381" fill="#ffeea8"/>
  <circle cx="674.529" cy="795.828" r="4.78383" fill="#ffeea8"/>
  <circle cx="734.908" cy="847.507" r="1.1557" fill="#ffeea8"/>
  <circle cx="356.109" cy="460.54" r="1.69521" fill="#ffeea8"/>
  <circle cx="519.981" cy="222.855" r="1.9835" fill="#ffeea8"/>
  <circle cx="553.367" cy="181.432" r="1.16391" fill="#cad8ff"/>
  <circle cx="332.234" cy="570.438" r="1.0054" fill="#cad8ff"/>
  <circle cx="658.572" cy="51.0438" r="1.80019" fill="#ffeea8"/>
  <circle cx="574.767" cy="688.649" r="2.01303" fill="#aabfff"/>
  <circle cx="670.382" cy="463.519" r="2.50046" fill="#ffeea8"/>
  <circle cx="553.326" cy="663.23" r="4.3998" fill="#ffd2a1"/>
  <circle cx="545.338" cy="583.58" r="2.7202" fill="#cad8ff"/>
  <circle cx="123.019" cy="723.318" r="1.76915" fill="#ffeea8"/>
  <circle cx="492.276" cy="181.06" r="2.93876" fill="#ffeea8"/>
  <circle cx="598.609" cy="170.655" r="1.15107" fill="#ffeea8"/>
  <circle cx="626.775" cy="591.893" r="1.32405" fill="#ffeea8"/>
  <circle cx="387.98" cy="185.116" r="1.28511" fill="#cad8ff"/>
  <circle cx="617.348" cy="754.625" r="1.25972" fill="#cad8ff"/>
  <circle cx="527.628" cy="380.176" r="1.90786" fill="#ffeea8"/>
  <circle cx="532.178" cy="448.524" r="1.29195" fill="#aabfff"/>
  <circle cx="637.662" cy="769.858" r="1.28278" fill="#ffeea8"/>
  <circle cx="561.168" cy="275.106" r="1.51144" fill="#ffeea8"/>
  <circle cx="70.4544" cy="661.662" r="3.8832" fill="#ffeea8"/>
  <circle cx="549.951" cy="876.355" r="2.89015" fill="#ffeea8"/>
  <circle cx="898.063" cy="441.689" r="3.62" fill="#ffeea8"/>
  <circle cx="466.564" cy="547.685" r="4.05675" fill="#aabfff"/>
  <circle cx="270.68" cy="517.398" r="1.97449" fill="#ffeea8"/>
  <circle cx="140.187" cy="745.06" r="1.05454" fill="#ffeea8"/>
  <circle cx="487.326" cy="951.508" r="2.20018" fill="#ffeea8"/>
  <circle cx="918.824" cy="570.442" r="2.03985" fill="#cad8ff"/>
  <circle cx="415.904" cy="799.578" r="1.65441" fill="#aabfff"/>
  <circle cx="262.139" cy="706.782" r="1.68633" fill="#ffeea8"/>
  <circle cx="222.971" cy="325.871" r="1.04265" fill="#ffeea8"/>
  <circle cx="901.011" cy="590.607" r="1.11558" fill="#ffeea8"/>
  <circle cx="727.312" cy="522.609" r="1.81607" fill="#ffeea8"/>
  <circle cx="942.502" cy="352.96" r="3.71848" fill="#aabfff"/>
  <circle cx="379.424" cy="118.42" r="1.15544" fill="#ffeea8"/>
  <circle cx="126.927" cy="238.707" r="1.23378" fill="#ffeea8"/>
  <circle cx="509.757" cy="884.81" r="1.41478" fill="#ffeea8"/>
  <circle cx="859.663" cy="621.07" r="1.94561" fill="#ffeea8"/>
  <circle cx="583.044" cy="297.342" r="5.50522" fill="#f8f7ff"/>
  <circle cx="489.587" cy="639.711" r="1.17632" fill="#ffeea8"/>
  <circle cx="305.432" cy="575.705" r="1.37132" fill="#ffeea8"/>
  <circle cx="423.403" cy="338.631" r="1.41613" fill="#ffeea8"/>
  <circle cx="723.484" cy="370.334" r="1.28293" fill="#ffeea8"/>
  <circle cx="509.735" cy="37.955" r="1.31618" fill="#ffeea8"/>
  <circle cx="416.194" cy="47.6841" r="2.05806" fill="#cad8ff"/>
  <circle cx="375.134" cy="358.963" r="1.49851" fill="#ffeea8"/>
  <circle cx="514.387" cy="182.015" r="1.56234" fill="#cad8ff"/>
  <circle cx="698.358" cy="439.417" r="1.82273" fill="#ffeea8"/>
  <circle cx="597.818" cy="299.889" r="2.08233" fill="#ffeea8"/>
  <circle cx="654.891" cy="383.079" r="1.14145" fill="#ffeea8"/>
  <circle cx="634.096" cy="602.785" r="1.05474" fill="#ffeea8"/>
  <circle cx="867.936" cy="429.472" r="1.30303" fill="#ffeea8"/>
  <circle cx="259.664" cy="615.436" r="4.05146" fill="#f8f7ff"/>
  <circle cx="700.581" cy="704.037" r="1.87106" fill="#ffeea8"/>
  <circle cx="688.352" cy="516.438" r="1.43298" fill="#ffeea8"/>
  <circle cx="526.484" cy="465.916" r="1.33082" fill="#ffeea8"/>
  <circle cx="45.4607" cy="691.105" r="1.27297" fill="#ffeea8"/>
  <circle cx="417.722" cy="211.017" r="2.14438" fill="#ffeea8"/>
  <circle cx="913.259" cy="646.982" r="1.22494" fill="#ffeea8"/>
  <circle cx="795.121" cy="527.868" r="2.81417" fill="#ffeea8"/>
  <circle cx="581.744" cy="411.469" r="1.35753" fill="#aabfff"/>
  <circle cx="569.497" cy="220.521" r="1.32643" fill="#ffeea8"/>
  <circle cx="715.609" cy="516.244" r="1.14088" fill="#ffeea8"/>
  <circle cx="717.986" cy="158.106" r="4.75259" fill="#ffeea8"/>
  <circle cx="870.872" cy="765.426" r="3.59725" fill="#cad8ff"/>
  <circle cx="320.212" cy="941.142" r="1.13485" fill="#aabfff"/>
  <circle cx="470.554" cy="725.136" r="2.94172" fill="#aabfff"/>
  <circle cx="723.004" cy="524.356" r="1.27419" fill="#ffeea8"/>
  <circle cx="547.288" cy="139.868" r="2.37317" fill="#ffeea8"/>
  <circle cx="484.396" cy="363.856" r="3.65088" fill="#ffeea8"/>
  <circle cx="673.469" cy="540.321" r="1.42776" fill="#cad8ff"/>
  <circle cx="628.315" cy="362.393" r="1.14793" fill="#ffeea8"/>
  <circle cx="991.68" cy="539.783" r="1.36842" fill="#cad8ff"/>
  <circle cx="597.253" cy="49.5685" r="1.08135" fill="#ffeea8"/>
  <circle cx="454.946" cy="202.156" r="3.32329" fill="#ffeea8"/>
  <circle cx="174.893" cy="644.324" r="1.31103" fill="#ffeea8"/>
  <circle cx="761.399" cy="293.579" r="1.55898" fill="#ffeea8"/>
  <circle cx="402.133" cy="345.203" r="1.41509" fill="#ffeea8"/>
  <circle cx="288.858" cy="578.774" r="2.03785" fill="#f8f7ff"/>
  <circle cx="485.417" cy="138.136" r="1.98456" fill="#ffeea8"/>
  <circle cx="920.843" cy="579.823" r="1.32509" fill="#ffeea8"/>
  <circle cx="593.575" cy="534.312" r="2.2506" fill="#cad8ff"/>
  <circle cx="539.898" cy="140.519" r="1.07357" fill="#ffeea8"/>
  <circle cx="740.327" cy="745.594" r="2.00308" fill="#ffeea8"/>
  <circle cx="235.353" cy="446.314" r="2.88142" fill="#ffeea8"/>
  <circle cx="419.149" cy="648.08" r="1.70906" fill="#ffeea8"/>
  <circle cx="479.394" cy="420.463" r="2.06305" fill="#ffeea8"/>
  <circle cx="158.209" cy="573.06" r="1.55985" fill="#ffeea8"/>
  <circle cx="547.918" cy="569.066" r="1.10875" fill="#ffeea8"/>
  <circle cx="508.01" cy="661.52" r="1.79496" fill="#ffeea8"/>
  <circle cx="703.672" cy="258.864" r="4.26118" fill="#aabfff"/>
  <circle cx="308.57" cy="779.526" r="5.1464" fill="#aabfff"/>
  <circle cx="429.358" cy="684.126" r="1.17777" fill="#ffeea8"/>
  <circle cx="272.28" cy="461.716" r="3.41925" fill="#ffeea8"/>
  <circle cx="784.494" cy="366.995" r="1.61382" fill="#ffeea8"/>
  <circle cx="863.545" cy="441.555" r="1.17534" fill="#ffeea8"/>
  <circle cx="317.046" cy="337.577" r="4.65032" fill="#aabfff"/>
  <circle cx="384.556" cy="65.1224" r="2.35434" fill="#ffd2a1"/>
  <circle cx="768.483" cy="543.253" r="2.33311" fill="#ffeea8"/>
  <circle cx="478.238" cy="914.009" r="2.38874" fill="#ffeea8"/>
  <circle cx="223.576" cy="395.961" r="1.5164" fill="#cad8ff"/>
  <circle cx="750.412" cy="157.427" r="2.78416" fill="#ffeea8"/>
  <circle cx="563.53" cy="641.762" r="1.20649" fill="#ffeea8"/>
  <circle cx="661.502" cy="539.192" r="2.63172" fill="#aabfff"/>
  <circle cx="462.72" cy="962.175" r="1.03781" fill="#ffeea8"/>
  <circle cx="431.81" cy="501.715" r="5.68087" fill="#aabfff"/>
  <circle cx="671.983" cy="126.518" r="2.03623" fill="#ffeea8"/>
  <circle cx="689.596" cy="191.128" r="3.10216" fill="#ffeea8"/>
  <circle cx="395.915" cy="819.674" r="1.73149" fill="#ffeea8"/>
  <circle cx="615.421" cy="481.227" r="1.95781" fill="#ffeea8"/>
  <circle cx="302.873" cy="362.682" r="1.17247" fill="#ffeea8"/>
  <circle cx="678.682" cy="568.663" r="2.42331" fill="#f8f7ff"/>
  <circle cx="708.801" cy="235.009" r="1.09527" fill="#f8f7ff"/>
  <circle cx="474.946" cy="772.285" r="2.33734" fill="#cad8ff"/>
  <circle cx="212.683" cy="734.023" r="1.35205" fill="#cad8ff"/>
  <circle cx="178.909" cy="367.024" r="3.6729" fill="#ffeea8"/>
  <circle cx="288.117" cy="662.309" r="2.2371" fill="#cad8ff"/>
  <circle cx="250.072" cy="293.491" r="1.23915" fill="#ffeea8"/>
  <circle cx="893.878" cy="501.677" r="2.72598" fill="#ffeea8"/>
  <circle cx="545.626" cy="860.247" r="1.60696" fill="#ffeea8"/>
  <circle cx="371.898" cy="392.884" r="3.04152" fill="#aabfff"/>
  <circle cx="261.877" cy="462.428" r="2.85371" fill="#ffeea8"/>
  <circle cx="192.619" cy="165.144" r="2.07999" fill="#ffeea8"/>
  <circle cx="414.747" cy="692.752" r="1.9793" fill="#ffeea8"/>
  <circle cx="592.871" cy="456.925" r="1.42845" fill="#cad8ff"/>
  <circle cx="569.63" cy="785.149" r="1.1632" fill="#ffeea8"/>
  <circle cx="110.026" cy="594.068" r="1.31125" fill="#ffeea8"/>
  <circle cx="337.061" cy="724.447" r="1.10923" fill="#ffeea8"/>
  <circle cx="352.534" cy="569.467" r="1.60385" fill="#f8f7ff"/>
  <circle cx="71.3469" cy="484.415" r="1.00326" fill="#ffeea8"/>
  <circle cx="721.246" cy="584.903" r="2.05363" fill="#ffeea8"/>
  <circle cx="728.169" cy="655.581" r="2.19006" fill="#ffeea8"/>
  <circle cx="239.075" cy="273.445" r="2.11562" fill="#ffeea8"/>
  <circle cx="594.087" cy="223.154" r="2.96619" fill="#ffeea8"/>
  <circle cx="664.868" cy="427.131" r="3.55843" fill="#ffeea8"/>
  <circle cx="496.159" cy="842.253" r="1.19989" fill="#ffeea8"/>
  <circle cx="609.878" cy="298.261" r="3.16593" fill="#ffeea8"/>
  <circle cx="276.688" cy="282.764" r="2.72347" fill="#ffeea8"/>
  <circle cx="460.477" cy="233.882" r="1.40264" fill="#cad8ff"/>
  <circle cx="226.685" cy="443.708" r="1.7858" fill="#ffeea8"/>
  <circle cx="717.817" cy="329.167" r="1.18621" fill="#ffeea8"/>
  <circle cx="175.852" cy="200.978" r="2.04309" fill="#ffeea8"/>
  <circle cx="333.558" cy="49.392" r="2.15596" fill="#aabfff"/>
  <circle cx="495.009" cy="439.344" r="2.50109" fill="#ffeea8"/>
  <circle cx="82.307" cy="496.734" r="2.67933" fill="#ffeea8"/>
  <circle cx="471.69" cy="610.883" r="1.50136" fill="#ffeea8"/>
  <circle cx="552.659" cy="320.794" r="1.21558" fill="#ffeea8"/>
  <circle cx="660.071" cy="405.118" r="1.83483" fill="#ffeea8"/>
  <circle cx="591.192" cy="911.628" r="2.1835" fill="#ffeea8"/>
  <circle cx="266.375" cy="295.418" r="1.28335" fill="#ffeea8"/>
  <circle cx="650.656" cy="664.11" r="1.41756" fill="#aabfff"/>
  <circle cx="730.345" cy="333.214" r="1.15064" fill="#ffeea8"/>
  <circle cx="452.984" cy="652.918" r="1.12247" fill="#ffeea8"/>
  <circle cx="622.838" cy="502.483" r="1.12492" fill="#ffeea8"/>
  <circle cx="370.581" cy="418.574" r="1.11863" fill="#cad8ff"/>
  <circle cx="353.174" cy="722.267" r="1.30637" fill="#ffeea8"/>
  <circle cx="497.981" cy="783.676" r="2.75713" fill="#ffeea8"/>
  <circle cx="787.725" cy="706.252" r="1.30547" fill="#ffeea8"/>
  <circle cx="147.197" cy="146.958" r="5.5685" fill="#aabfff"/>
  <circle cx="766.193" cy="260.901" r="2.40957" fill="#ffeea8"/>
  <circle cx="604.607" cy="419.681" r="1.95819" fill="#ffeea8"/>
  <circle cx="800.017" cy="833.993" r="2.54639" fill="#ffeea8"/>
  <circle cx="656.125" cy="321.769" r="2.01944" fill="#ffeea8"/>
  <circle cx="346.027" cy="464.042" r="1.1251" fill="#cad8ff"/>
  <circle cx="799.176" cy="388.747" r="1.08212" fill="#ffeea8"/>
  <circle cx="188" cy="609.532" r="1.79814" fill="#aabfff"/>
  <circle cx="647.475" cy="216.76" r="3.88669" fill="#aabfff"/>
  <circle cx="666.672" cy="556.563" r="1.3178" fill="#ffeea8"/>
  <circle cx="648.096" cy="398.237" r="1.04278" fill="#ffeea8"/>
  <circle cx="589.982" cy="218.512" r="2.88389" fill="#ffeea8"/>
  <circle cx="527.591" cy="517.664" r="2.46865" fill="#ffeea8"/>
  <circle cx="264.703" cy="423.788" r="1.22164" fill="#ffeea8"/>
  <circle cx="422.789" cy="485.451" r="1.1857" fill="#ffeea8"/>
  <circle cx="468.804" cy="206.443" r="1.35747" fill="#ffeea8"/>
  <circle cx="362.232" cy="328.945" r="1.08998" fill="#ffeea8"/>
  <circle cx="795.607" cy="458.125" r="1.24341" fill="#ffeea8"/>
  <circle cx="38.5927" cy="347.848" r="1.03735" fill="#ffeea8"/>
  <circle cx="69.4077" cy="370.831" r="1.47918" fill="#cad8ff"/>
  <circle cx="726.285" cy="277.505" r="2.36692" fill="#ffeea8"/>
  <circle cx="420.683" cy="653.786" r="1.32383" fill="#ffeea8"/>
  <circle cx="634.806" cy="762.183" r="1.48735" fill="#ffeea8"/>
  <circle cx="436.981" cy="189.017" r="1.39114" fill="#aabfff"/>
  <circle cx="286.927" cy="574.379" r="4.51882" fill="#ffeea8"/>
  <circle cx="218.001" cy="285.319" r="4.47989" fill="#ffeea8"/>
  <circle cx="736.915" cy="487.159" r="1.15998" fill="#ffeea8"/>
  <circle cx="408.466" cy="922.527" r="3.53302" fill="#aabfff"/>
  <circle cx="320.885" cy="343.129" r="1.04935" fill="#ffeea8"/>
  <circle cx="439.506" cy="942.129" r="3.50752" fill="#ffeea8"/>
  <circle cx="164.307" cy="415.943" r="1.31997" fill="#ffd2a1"/>
  <circle cx="540.767" cy="31.2476" r="2.68007" fill="#cad8ff"/>
  <circle cx="480.498" cy="604.921" r="3.39905" fill="#f8f7ff"/>
  <circle cx="522.995" cy="474.952" r="2.32129" fill="#ffeea8"/>
  <circle cx="286.152" cy="89.801" r="1.22279" fill="#aabfff"/>
  <circle cx="58.7412" cy="605.018" r="1.35648" fill="#ffeea8"/>
  <circle cx="509.974" cy="629.803" r="2.59891" fill="#ffeea8"/>
  <circle cx="195.517" cy="483.75" r="1.88619" fill="#ffeea8"/>
  <circle cx="211.426" cy="483.148" r="1.20382" fill="#ffeea8"/>
  <circle cx="700.404" cy="199.611" r="1.12825" fill="#ffeea8"/>
  <circle cx="521.101" cy="594.708" r="2.29076" fill="#ffeea8"/>
  <circle cx="506.41" cy="916.188" r="1.83863" fill="#ffeea8"/>
  <circle cx="656.643" cy="58.1574" r="4.0032" fill="#ffeea8"/>
  <circle cx="141.054" cy="322.818" r="1.81724" fill="#ffeea8"/>
  <circle cx="186.765" cy="334.902" r="1.2034" fill="#ffeea8"/>
  <circle cx="413.806" cy="858.088" r="1.24668" fill="#ffeea8"/>
  <circle cx="733.886" cy="764.058" r="1.62394" fill="#aabfff"/>
  <circle cx="739.105" cy="800.89" r="2.3661" fill="#cad8ff"/>
  <circle cx="912.784" cy="430.392" r="2.10272" fill="#cad8ff"/>
  <circle cx="162.895" cy="199.655" r="2.13398" fill="#ffeea8"/>
  <circle cx="737.066" cy="98.6814" r="1.89921" fill="#aabfff"/>
  <circle cx="652.406" cy="762.652" r="1.22373" fill="#cad8ff"/>
  <circle cx="121.512" cy="297.355" r="1.95242" fill="#ffeea8"/>
  <circle cx="760.802" cy="662.231" r="1.21568" fill="#ffeea8"/>
  <circle cx="496.795" cy="539.795" r="1.27962" fill="#ffeea8"/>
  <circle cx="715.177" cy="596.599" r="2.33359" fill="#ffeea8"/>
  <circle cx="338.295" cy="392.669" r="1.16161" fill="#ffeea8"/>
  <circle cx="267.802" cy="423.821" r="4.00869" fill="#cad8ff"/>
  <circle cx="899.994" cy="371.542" r="1.29249" fill="#ffeea8"/>
  <circle cx="473.334" cy="821.869" r="1.85119" fill="#ffeea8"/>
  <circle cx="125.76" cy="544.866" r="1.29942" fill="#ffeea8"/>
  <circle cx="446.593" cy="248.767" r="3.04564" fill="#cad8ff"/>
  <circle cx="515.407" cy="408.471" r="2.581" fill="#ffeea8"/>
  <circle cx="574.786" cy="509.625" r="1.37613" fill="#ffeea8"/>
  <circle cx="858.486" cy="396.378" r="3.13867" fill="#ffeea8"/>
  <circle cx="346.939" cy="106.218" r="1.32649" fill="#ffeea8"/>
  <circle cx="713.852" cy="670.279" r="2.01756" fill="#cad8ff"/>
  <circle cx="186.25" cy="633.791" r="5.86046" fill="#ffeea8"/>
  <circle cx="243.657" cy="578.801" r="2.22492" fill="#ffeea8"/>
  <circle cx="359.694" cy="339.59" r="3.92835" fill="#ffeea8"/>
  <circle cx="870.294" cy="356.697" r="2.33213" fill="#ffeea8"/>
  <circle cx="341.82" cy="722.907" r="3.32796" fill="#aabfff"/>
  <circle cx="729.831" cy="329.688" r="1.85014" fill="#ffeea8"/>
  <circle cx="421.695" cy="891.922" r="2.51769" fill="#f8f7ff"/>
  <circle cx="478.224" cy="710.163" r="4.392" fill="#ffeea8"/>
  <circle cx="254.369" cy="436.277" r="1.10412" fill="#ffeea8"/>
  <circle cx="640.435" cy="302.768" r="2.58784" fill="#ffeea8"/>
  <circle cx="689.999" cy="242.549" r="1.00427" fill="#ffeea8"/>
  <circle cx="432.543" cy="457.525" r="1.38144" fill="#ffeea8"/>
  <circle cx="511.425" cy="715.756" r="1.14692" fill="#aabfff"/>
  <circle cx="766.754" cy="205.78" r="1.18193" fill="#cad8ff"/>
  <circle cx="597.708" cy="620.369" r="2.10118" fill="#ffeea8"/>
  <circle cx="203.462" cy="501.635" r="1.39797" fill="#ffeea8"/>
  <circle cx="108.214" cy="196.777" r="5.08846" fill="#ffeea8"/>
  <circle cx="971.052" cy="458.482" r="1.38962" fill="#ffeea8"/>
  <circle cx="696.637" cy="751.907" r="2.27484" fill="#aabfff"/>
  <circle cx="260.014" cy="386.287" r="1.78692" fill="#fff4ea"/>
  <circle cx="355.554" cy="680.071" r="1.46607" fill="#f8f7ff"/>
  <circle cx="230.572" cy="413.616" r="1.84784" fill="#ffeea8"/>
  <circle cx="601.669" cy="422.357" r="4.03808" fill="#ffeea8"/>
  <circle cx="601.219" cy="638.931" r="1.4967" fill="#ffeea8"/>
  <circle cx="313.364" cy="715.09" r="1.5229" fill="#ffeea8"/>
  <circle cx="266.739" cy="695.68" r="1.29714" fill="#aabfff"/>
  <circle cx="296.758" cy="478.916" r="1.47071" fill="#ffeea8"/>
  <circle cx="401.509" cy="604.544" r="4.56612" fill="#aabfff"/>
  <circle cx="247.569" cy="531.388" r="1.14546" fill="#cad8ff"/>
  <circle cx="591.317" cy="422.036" r="1.08989" fill="#ffeea8"/>
  <circle cx="145.256" cy="374.807" r="1.01331" fill="#ffeea8"/>
  <circle cx="743.155" cy="426.176" r="1.93222" fill="#ffeea8"/>
  <circle cx="596.88" cy="781.809" r="1.02804" fill="#ffeea8"/>
  <circle cx="543.215" cy="448.059" r="1.17022" fill="#ffeea8"/>
  <circle cx="649.493" cy="618.194" r="1.73469" fill="#ffeea8"/>
  <circle cx="545.898" cy="616.757" r="4.53456" fill="#aabfff"/>
  <circle cx="280.267" cy="489.943" r="1.11748" fill="#ffeea8"/>
  <circle cx="231.189" cy="283.463" r="1.71634" fill="#ffeea8"/>
  <circle cx="798.591" cy="328.478" r="2.13353" fill="#ffeea8"/>
  <circle cx="399.243" cy="385.031" r="1.37925" fill="#aabfff"/>
  <circle cx="591.07" cy="624.105" r="1.28632" fill="#ffeea8"/>
  <circle cx="418.446" cy="238.369" r="3.00628" fill="#f8f7ff"/>
  <circle cx="812.047" cy="794.753" r="4.77377" fill="#ffeea8"/>
  <circle cx="176.412" cy="213.875" r="2.24781" fill="#ffeea8"/>
  <circle cx="444.947" cy="668.902" r="2.11456" fill="#ffeea8"/>
  <circle cx="45.8824" cy="570.805" r="2.24897" fill="#cad8ff"/>
  <circle cx="750.436" cy="586.708" r="1.91738" fill="#ffeea8"/>
  <circle cx="366.315" cy="720.015" r="2.18627" fill="#ffeea8"/>
  <circle cx="233.573" cy="914.144" r="1.6462" fill="#ffeea8"/>
  <circle cx="119.473" cy="619.632" r="1.5493" fill="#ffeea8"/>
  <circle cx="315.982" cy="219.452" r="1.24182" fill="#ffeea8"/>
  <circle cx="205.785" cy="609.261" r="2.1177" fill="#fff4ea"/>
  <circle cx="402.337" cy="140.782" r="2.06329" fill="#ffeea8"/>
  <circle cx="805.066" cy="444.621" r="1.61543" fill="#ffeea8"/>
  <circle cx="623.88" cy="466.92" r="1.0082" fill="#ffeea8"/>
  <circle cx="407.632" cy="437.842" r="1.61393" fill="#ffeea8"/>
  <circle cx="471.392" cy="876.975" r="2.47497" fill="#aabfff"/>
  <circle cx="481.457" cy="87.0267" r="2.49702" fill="#ffeea8"/>
  <circle cx="69.0736" cy="357.148" r="1.42741" fill="#ffeea8"/>
  <circle cx="602.721" cy="368.566" r="2.00948" fill="#ffeea8"/>
  <circle cx="641.246" cy="523.834" r="1.57153" fill="#ffeea8"/>
  <circle cx="789.891" cy="443.235" r="2.7487" fill="#ffeea8"/>
  <circle cx="659.771" cy="793.411" r="8" fill="#aabfff"/>
  <circle cx="483.15" cy="601.733" r="4.10621" fill="#ffeea8"/>
  <circle cx="393.077" cy="459.435" r="1.37451" fill="#ffeea8"/>
  <circle cx="800.859" cy="124.229" r="6.53337" fill="#aabfff"/>
  <circle cx="742.609" cy="783.037" r="5.45145" fill="#aabfff"/>
  <circle cx="608.991" cy="688.937" r="1.98752" fill="#ffeea8"/>
  <circle cx="825.282" cy="465.459" r="2.77438" fill="#ffeea8"/>
  <circle cx="667.301" cy="825.963" r="2.37749" fill="#cad8ff"/>
  <circle cx="632.733" cy="314.244" r="1.77463" fill="#fff4ea"/>
  <circle cx="758.546" cy="691.533" r="1.43634" fill="#f8f7ff"/>
  <circle cx="190.48" cy="614.39" r="2.33396" fill="#ffeea8"/>
  <circle cx="247.819" cy="543.932" r="2.69927" fill="#ffeea8"/>
  <circle cx="682.057" cy="441.765" r="3.07926" fill="#cad8ff"/>
  <circle cx="757.214" cy="79.6949" r="1.02635" fill="#ffd2a1"/>
  <circle cx="453.201" cy="607.892" r="1.14853" fill="#ffeea8"/>
  <circle cx="476.834" cy="860.321" r="1.37224" fill="#ffeea8"/>
  <circle cx="456.482" cy="229.498" r="1.40454" fill="#ffeea8"/>
  <circle cx="627.474" cy="348.246" r="1.2417" fill="#ffeea8"/>
  <circle cx="440.072" cy="184.602" r="1.54429" fill="#ffeea8"/>
  <circle cx="296.177" cy="448.059" r="1.08318" fill="#ffeea8"/>
  <circle cx="480.16" cy="248.131" r="1.95431" fill="#cad8ff"/>
  <circle cx="575.907" cy="422.048" r="2.05065" fill="#cad8ff"/>
  <circle cx="795.834" cy="288.568" r="2.87233" fill="#ffeea8"/>
  <circle cx="157.383" cy="632.437" r="1.8442" fill="#ffeea8"/>
  <circle cx="602.042" cy="52.4464" r="1.34848" fill="#cad8ff"/>
  <circle cx="489.913" cy="265.525" r="1.06257" fill="#ffeea8"/>
  <circle cx="397.137" cy="909.668" r="2.4402" fill="#ffd2a1"/>
  <circle cx="199.896" cy="842.096" r="1.19639" fill="#ffeea8"/>
  <circle cx="600.16" cy="258.19" r="2.54799" fill="#aabfff"/>
  <circle cx="523.637" cy="647.007" r="1.20048" fill="#ffeea8"/>
  <circle cx="716.772" cy="365.55" r="1.96066" fill="#ffeea8"/>
  <circle cx="623.88" cy="480.082" r="3.01719" fill="#ffeea8"/>
  <circle cx="420.779" cy="764.499" r="1.08795" fill="#ffeea8"/>
  <circle cx="322.295" cy="202.64" r="3.68394" fill="#ffeea8"/>
  <circle cx="520.077" cy="604.448" r="2.00971" fill="#cad8ff"/>
  <circle cx="400.423" cy="500.252" r="1.168" fill="#ffeea8"/>
  <circle cx="257.221" cy="527.206" r="2.72157" fill="#ffeea8"/>
  <circle cx="685.034" cy="668.395" r="2.4951" fill="#ffeea8"/>
  <circle cx="286.413" cy="70.5973" r="1.69128" fill="#ffeea8"/>
  <circle cx="680.39" cy="414.534" r="1.08707" fill="#ffeea8"/>
  <circle cx="300.206" cy="517.231" r="1.27393" fill="#ffeea8"/>
  <circle cx="553.075" cy="402.264" r="1.01394" fill="#ffeea8"/>
  <circle cx="133.775" cy="563.434" r="1.01403" fill="#ffeea8"/>
  <circle cx="793.271" cy="513.417" r="1.0839" fill="#ffeea8"/>
  <circle cx="638.139" cy="298.554" r="1.15179" fill="#f8f7ff"/>
  <circle cx="111.727" cy="395.121" r="1.04833" fill="#ffeea8"/>
  <circle cx="833.121" cy="531.316" r="1.52464" fill="#ffeea8"/>
  <circle cx="663.894" cy="70.4318" r="2.1606" fill="#ffeea8"/>
  <circle cx="479.656" cy="380.595" r="1.06898" fill="#ffeea8"/>
  <circle cx="815.338" cy="842.5" r="2.33594" fill="#f8f7ff"/>
  <circle cx="518.483" cy="669.482" r="1.92583" fill="#ffeea8"/>
  <circle cx="411.622" cy="439.769" r="1.1576" fill="#cad8ff"/>
  <circle cx="347.33" cy="860.656" r="3.85529" fill="#ffeea8"/>
  <circle cx="316.603" cy="374.114" r="1.19007" fill="#aabfff"/>
  <circle cx="579.42" cy="599.007" r="2.0198" fill="#ffeea8"/>
  <circle cx="518.866" cy="136.01" r="1.67831" fill="#ffeea8"/>
  <circle cx="603.467" cy="725.548" r="3.27201" fill="#ffeea8"/>
  <circle cx="765.334" cy="774.769" r="3.72118" fill="#ffeea8"/>
  <circle cx="729.728" cy="157.267" r="3.34798" fill="#ffeea8"/>
  <circle cx="539.436" cy="914.626" r="1.857" fill="#fff4ea"/>
  <circle cx="209.918" cy="406.42" r="1.56261" fill="#ffeea8"/>
  <circle cx="462.554" cy="629.348" r="2.82879" fill="#ffeea8"/>
  <circle cx="570.848" cy="401.519" r="1.00461" fill="#ffeea8"/>
  <circle cx="408.352" cy="207.746" r="1.34068" fill="#ffeea8"/>
  <circle cx="427.668" cy="370.135" r="2.3771" fill="#aabfff"/>
  <circle cx="500.209" cy="102.379" r="1.68724" fill="#ffeea8"/>
  <circle cx="182.719" cy="126.87" r="1.91772" fill="#ffeea8"/>
  <circle cx="343.721" cy="834.612" r="3.86994" fill="#ffeea8"/>
  <circle cx="443.426" cy="722.112" r="1.2315" fill="#ffeea8"/>
  <circle cx="771.472" cy="323.559" r="4.87639" fill="#ffeea8"/>
  <circle cx="746.266" cy="497.427" r="2.37601" fill="#ffeea8"/>
  <circle cx="397.336" cy="511.882" r="1.54255" fill="#ffeea8"/>
  <circle cx="380.863" cy="820.816" r="2.21415" fill="#ffeea8"/>
  <circle cx="811.643" cy="631.741" r="2.17384" fill="#ffeea8"/>
  <circle cx="912.543" cy="342.17" r="1.01296" fill="#ffeea8"/>
  <circle cx="702.133" cy="453.25" r="1.09269" fill="#ffeea8"/>
  <circle cx="211.782" cy="506.901" r="1.44274" fill="#aabfff"/>
  <circle cx="639.025" cy="551.569" r="1.37123" fill="#ffeea8"/>
  <circle cx="855.915" cy="552.063" r="2.10407" fill="#ffeea8"/>
  <circle cx="581.054" cy="158.976" r="3.45517" fill="#cad8ff"/>
  <circle cx="690.88" cy="683.111" r="2.27426" fill="#ffeea8"/>
  <circle cx="422.152" cy="367.559" r="1.35837" fill="#cad8ff"/>
  <circle cx="342.745" cy="626.27" r="1.62796" fill="#fff4ea"/>
  <circle cx="505.69" cy="740.915" r="2.52539" fill="#ffeea8"/>
  <circle cx="60.0955" cy="351.206" r="2.72471" fill="#ffeea8"/>
  <circle cx="524.187" cy="237.898" r="1.38103" fill="#ffd2a1"/>
  <circle cx="437.439" cy="617.929" r="1.53276" fill="#ffeea8"/>
  <circle cx="679.387" cy="186.67" r="2.41025" fill="#f8f7ff"/>
  <circle cx="475.561" cy="348.924" r="2.84442" fill="#aabfff"/>
  <circle cx="507.92" cy="664.075" r="1.15763" fill="#ffeea8"/>
  <circle cx="119.591" cy="704.84" r="2.01985" fill="#ffeea8"/>
  <circle cx="500.769" cy="81.4538" r="1.44636" fill="#ffeea8"/>
  <circle cx="733.799" cy="78.2965" r="1.9121" fill="#cad8ff"/>
  <circle cx="378.921" cy="908.152" r="1.65561" fill="#ffeea8"/>
  <circle cx="965.887" cy="536.496" r="2.03348" fill="#aabfff"/>
  <circle cx="715.826" cy="413.783" r="4.62797" fill="#ffeea8"/>
  <circle cx="817.358" cy="543.683" r="2.87422" fill="#ffeea8"/>
  <circle cx="347.516" cy="369.537" r="1.63337" fill="#aabfff"/>
  <circle cx="320.291" cy="647.329" r="2.28441" fill="#ffeea8"/>
  <circle cx="521.036" cy="308.217" r="6.02381" fill="#aabfff"/>
  <circle cx="173.774" cy="647.007" r="1.59765" fill="#ffeea8"/>
  <circle cx="100.29" cy="405.063" r="1.21989" fill="#ffeea8"/>
  <circle cx="523.728" cy="491.292" r="2.84878" fill="#ffeea8"/>
  <circle cx="504.047" cy="270.172" r="2.90907" fill="#ffeea8"/>
  <circle cx="284.713" cy="130.455" r="1.34042" fill="#ffeea8"/>
  <circle cx="647.06" cy="202.882" r="1.96997" fill="#ffeea8"/>
  <circle cx="490.895" cy="455.319" r="1.27225" fill="#ffeea8"/>
  <circle cx="399.257" cy="627.341" r="1.98531" fill="#ffeea8"/>
  <circle cx="408.536" cy="162.937" r="1.3884" fill="#ffd2a1"/>
  <circle cx="594.161" cy="161.201" r="1.26432" fill="#aabfff"/>
  <circle cx="860.977" cy="800.915" r="1.38455" fill="#ffeea8"/>
  <circle cx="443.956" cy="754.626" r="3.26063" fill="#ffeea8"/>
  <circle cx="341.22" cy="388.472" r="3.02737" fill="#aabfff"/>
  <circle cx="344.137" cy="497.154" r="3.89739" fill="#ffeea8"/>
  <circle cx="196.7" cy="460.343" r="1.66067" fill="#cad8ff"/>
  <circle cx="619.262" cy="311.806" r="1.28902" fill="#ffeea8"/>
  <circle cx="137.468" cy="557.95" r="1.81985" fill="#ffeea8"/>
  <circle cx="647.263" cy="294.025" r="4.17206" fill="#aabfff"/>
  <circle cx="867.703" cy="518.822" r="1.5272" fill="#ffeea8"/>
  <circle cx="461.605" cy="721.079" r="1.81155" fill="#aabfff"/>
  <circle cx="320.778" cy="559.245" r="3.19323" fill="#ffeea8"/>
  <circle cx="614.957" cy="452.735" r="2.30918" fill="#ffeea8"/>
  <circle cx="673.146" cy="197.356" r="2.54334" fill="#ffeea8"/>
  <circle cx="353.212" cy="594.44" r="1.15322" fill="#ffeea8"/>
  <circle cx="211.114" cy="543.377" r="1.31526" fill="#cad8ff"/>
  <circle cx="301.072" cy="570.696" r="1.62671" fill="#aabfff"/>
  <circle cx="424.98" cy="620.349" r="1.07615" fill="#ffeea8"/>
  <circle cx="424.369" cy="696.499" r="6.44766" fill="#ffeea8"/>
  <circle cx="655.756" cy="452.579" r="1.15888" fill="#cad8ff"/>
  <circle cx="434.559" cy="845.77" r="3.9658" fill="#aabfff"/>
  <circle cx="340.108" cy="121.371" r="1.36013" fill="#ffeea8"/>
  <circle cx="525.189" cy="424.352" r="2.7908" fill="#ffeea8"/>
  <circle cx="58.4855" cy="298.905" r="2.27658" fill="#ffeea8"/>
  <circle cx="869.966" cy="808.861" r="3.67368" fill="#ffeea8"/>
  <circle cx="692.368" cy="604.813" r="1.39572" fill="#ffeea8"/>
  <circle cx="491.691" cy="860.976" r="1.12843" fill="#cad8ff"/>
  <circle cx="640.736" cy="856.326" r="3.62428" fill="#ffeea8"/>
  <circle cx="179.4" cy="449.252" r="3.58593" fill="#cad8ff"/>
  <circle cx="253.605" cy="656.177" r="4.043" fill="#cad8ff"/>
  <circle cx="26.7487" cy="523.949" r="1.62294" fill="#ffeea8"/>
  <circle cx="773.919" cy="622.637" r="1.31204" fill="#ffeea8"/>
  <circle cx="405.069" cy="189.362" r="2.42759" fill="#ffeea8"/>
  <circle cx="158.644" cy="333.959" r="2.89198" fill="#ffeea8"/>
  <circle cx="415.283" cy="449.225" r="1.04608" fill="#aabfff"/>
  <circle cx="627.054" cy="765.286" r="1.2392" fill="#ffeea8"/>
  <circle cx="554.946" cy="551.897" r="2.06614" fill="#ffeea8"/>
  <circle cx="671.44" cy="600.285" r="2.68566" fill="#ffeea8"/>
  <circle cx="438.911" cy="767.107" r="2.86864" fill="#ffeea8"/>
  <circle cx="542.803" cy="450.498" r="1.41132" fill="#ffeea8"/>
  <circle cx="755.768" cy="762.247" r="2.17747" fill="#ffeea8"/>
  <circle cx="465.011" cy="685.711" r="2.33206" fill="#ffeea8"/>
  <circle cx="162.307" cy="481.881" r="1.28442" fill="#ffeea8"/>
  <circle cx="949.156" cy="400.286" r="3.09307" fill="#ffd2a1"/>
  <circle cx="390.006" cy="146.003" r="2.67492" fill="#ffeea8"/>
  <circle cx="450.737" cy="434.113" r="1.08525" fill="#ffeea8"/>
  <circle cx="494.785" cy="930.61" r="1.51175" fill="#ffeea8"/>
  <circle cx="616.456" cy="427.944" r="1.58173" fill="#ffeea8"/>
  <circle cx="341.964" cy="820.801" r="1.86632" fill="#f8f7ff"/>
  <circle cx="507.238" cy="267.367" r="6.8236" fill="#ffeea8"/>
  <circle cx="594.598" cy="131.594" r="1.93924" fill="#aabfff"/>
  <circle cx="323.801" cy="491.244" r="1.62289" fill="#ffeea8"/>
  <circle cx="347.038" cy="226.23" r="2.14567" fill="#cad8ff"/>
  <circle cx="410.934" cy="411.944" r="1.44005" fill="#ffeea8"/>
  <circle cx="363.988" cy="125.838" r="3.26292" fill="#aabfff"/>
  <circle cx="538.832" cy="702.873" r="2.48783" fill="#aabfff"/>
  <circle cx="592.632" cy="778.479" r="2.45384" fill="#ffeea8"/>
  <circle cx="159.573" cy="218.434" r="2.25573" fill="#ffeea8"/>
  <circle cx="675.601" cy="803.72" r="1.689" fill="#ffeea8"/>
  <circle cx="282.869" cy="291.795" r="1.00581" fill="#ffeea8"/>
  <circle cx="552.544" cy="578.929" r="1.0397" fill="#ffeea8"/>
  <circle cx="363.232" cy="849.83" r="1.32111" fill="#cad8ff"/>
  <circle cx="241.113" cy="471.358" r="2.22528" fill="#ffeea8"/>
  <circle cx="456.03" cy="439.367" r="1.09507" fill="#ffeea8"/>
  <circle cx="159.77" cy="296.743" r="1.53723" fill="#ffeea8"/>
  <circle cx="420.588" cy="862.806" r="1.60858" fill="#ffeea8"/>
  <circle cx="432.872" cy="478.385" r="1.48328" fill="#ffeea8"/>
  <circle cx="307.9" cy="322.097" r="4.90598" fill="#aabfff"/>
  <circle cx="831.041" cy="785.432" r="5.55876" fill="#ffeea8"/>
  <circle cx="434.226" cy="297.166" r="3.2867" fill="#aabfff"/>
  <circle cx="244.359" cy="718.571" r="3.51601" fill="#aabfff"/>
  <circle cx="523.727" cy="75.1892" r="4.54643" fill="#ffeea8"/>
  <circle cx="607.214" cy="312.306" r="1.31014" fill="#ffeea8"/>
  <circle cx="773.068" cy="468.282" r="1.5377" fill="#ffeea8"/>
  <circle cx="481.266" cy="135.635" r="1.22691" fill="#cad8ff"/>
  <circle cx="408.789" cy="360.167" r="1.09642" fill="#ffeea8"/>
  <circle cx="479.414" cy="939.003" r="1.40389" fill="#ffeea8"/>
  <circle cx="487.955" cy="756.472" r="1.61526" fill="#ffeea8"/>
  <circle cx="384.281" cy="145.776" r="3.03404" fill="#ffeea8"/>
  <circle cx="947.778" cy="680.941" r="1.34755" fill="#ffeea8"/>
  <circle cx="908.334" cy="658.017" r="1.98067" fill="#ffeea8"/>
  <circle cx="511.907" cy="296.923" r="6.34839" fill="#aabfff"/>
  <circle cx="278.654" cy="295.531" r="1.72294" fill="#ffeea8"/>
  <circle cx="709.645" cy="586.066" r="2.18632" fill="#ffeea8"/>
  <circle cx="837.322" cy="272.675" r="1.11539" fill="#ffeea8"/>
  <circle cx="739.539" cy="396.013" r="2.63864" fill="#cad8ff"/>
  <circle cx="579.215" cy="747.681" r="2.30196" fill="#ffeea8"/>
  <circle cx="836.537" cy="609.485" r="4.62705" fill="#ffd2a1"/>
  <circle cx="495.45" cy="601.739" r="1.89621" fill="#ffeea8"/>
  <circle cx="568.448" cy="319.659" r="1.91559" fill="#cad8ff"/>
  <circle cx="304.176" cy="582.163" r="3.79993" fill="#ffeea8"/>
  <circle cx="49.6188" cy="459.3" r="1.06401" fill="#ffeea8"/>
  <circle cx="272.22" cy="481.465" r="2.7339" fill="#ffeea8"/>
  <circle cx="747.501" cy="242.84" r="2.2284" fill="#ffeea8"/>
  <circle cx="249.294" cy="371.274" r="1.46913" fill="#ffeea8"/>
  <circle cx="273.955" cy="481.177" r="3.50318" fill="#ffeea8"/>
  <circle cx="659.127" cy="425.145" r="1.01189" fill="#ffeea8"/>
  <circle cx="398.494" cy="292.959" r="1.13073" fill="#cad8ff"/>
  <circle cx="161.144" cy="653.206" r="1.02991" fill="#ffeea8"/>
  <circle cx="406.334" cy="578.249" r="4.1992" fill="#ffeea8"/>
  <circle cx="637.873" cy="507.046" r="1.21669" fill="#ffeea8"/>
  <circle cx="510.989" cy="619.741" r="3.0239" fill="#ffeea8"/>
  <circle cx="848.991" cy="336.861" r="1.21075" fill="#f8f7ff"/>
  <circle cx="401.59" cy="284.55" r="3.18673" fill="#ffeea8"/>
  <circle cx="298.295" cy="312.495" r="2.36492" fill="#ffeea8"/>
  <circle cx="311.197" cy="361.5" r="1.11345" fill="#aabfff"/>
  <circle cx="241.23" cy="277.638" r="3.5725" fill="#cad8ff"/>
  <circle cx="294.291" cy="316.271" r="3.75478" fill="#ffeea8"/>
  <circle cx="170.929" cy="316.108" r="1.1655" fill="#aabfff"/>
  <circle cx="318.449" cy="104.109" r="2.34986" fill="#ffeea8"/>
  <circle cx="800.908" cy="690.717" r="1.65928" fill="#ffeea8"/>
  <circle cx="748.419" cy="119.781" r="1.33781" fill="#ffeea8"/>
  <circle cx="554.557" cy="993.208" r="2.17241" fill="#ffeea8"/>
  <circle cx="464.19" cy="191.606" r="1.38102" fill="#ffeea8"/>
  <circle cx="502.181" cy="785.255" r="1.19664" fill="#ffeea8"/>
  <circle cx="781.271" cy="476.503" r="4.71689" fill="#ffeea8"/>
  <circle cx="458.524" cy="413.776" r="1.48222" fill="#ffeea8"/>
  <circle cx="455.922" cy="343.008" r="2.37394" fill="#ffeea8"/>
  <!-- Star Labels -->
  <text x="524.253" y="581.91" font-family="sans-serif" font-size="8" fill="#aaa">87691</text>
  <text x="68.2533" y="560.416" font-family="sans-serif" font-size="8" fill="#aaa">133931</text>
  <text x="684.471" y="671.507" font-family="sans-serif" font-size="8" fill="#aaa">276441</text>
  <text x="694.087" y="704.816" font-family="sans-serif" font-size="8" fill="#aaa">305315</text>
  <text x="409.427" y="384.479" font-family="sans-serif" font-size="8" fill="#aaa">306711</text>
  <text x="611.909" y="156.618" font-family="sans-serif" font-size="8" fill="#aaa">318479</text>
  <text x="578.903" y="23.7322" font-family="sans-serif" font-size="8" fill="#aaa">452964</text>
  <text x="156.477" y="336.698" font-family="sans-serif" font-size="8" fill="#aaa">12403</text>
  <text x="514.182" y="224.966" font-family="sans-serif" font-size="8" fill="#aaa">41019</text>
  <text x="125.109" y="297.862" font-family="sans-serif" font-size="8" fill="#aaa">136922</text>
  <text x="811.623" y="382.42" font-family="sans-serif" font-size="8" fill="#aaa">142106</text>
  <text x="581.816" y="677.211" font-family="sans-serif" font-size="8" fill="#aaa">166186</text>
  <text x="629.791" y="171.029" font-family="sans-serif" font-size="8" fill="#aaa">206518</text>
  <text x="305.387" y="343.343" font-family="sans-serif" font-size="8" fill="#aaa">223461</text>
  <text x="245.788" y="543.012" font-family="sans-serif" font-size="8" fill="#aaa">237833</text>
  <text x="732.078" y="446.21" font-family="sans-serif" font-size="8" fill="#aaa">325269</text>
  <text x="561.565" y="874.671" font-family="sans-serif" font-size="8" fill="#aaa">328127</text>
  <text x="710.859" y="365.178" font-family="sans-serif" font-size="8" fill="#aaa">474708</text>
  <text x="227.628" y="673.184" font-family="sans-serif" font-size="8" fill="#aaa">514966</text>
  <text x="443.511" y="274.628" font-family="sans-serif" font-size="8" fill="#aaa">518974</text>
  <text x="670.697" y="561.749" font-family="sans-serif" font-size="8" fill="#aaa">531023</text>
  <text x="615.049" y="692.894" font-family="sans-serif" font-size="8" fill="#aaa">31704</text>
  <text x="500.229" y="746.809" font-family="sans-serif" font-size="8" fill="#aaa">52017</text>
  <text x="342.529" y="74.5216" font-family="sans-serif" font-size="8" fill="#aaa">129964</text>
  <text x="833.514" y="583.533" font-family="sans-serif" font-size="8" fill="#aaa">139925</text>
  <text x="299.411" y="441.118" font-family="sans-serif" font-size="8" fill="#aaa">271934</text>
  <text x="693.171" y="530.073" font-family="sans-serif" font-size="8" fill="#aaa">335049</text>
  <text x="436.446" y="351.789" font-family="sans-serif" font-size="8" fill="#aaa">336289</text>
  <text x="559.381" y="263.641" font-family="sans-serif" font-size="8" fill="#aaa">451505</text>
  <text x="547.498" y="134.843" font-family="sans-serif" font-size="8" fill="#aaa">475643</text>
  <text x="623.509" y="446" font-family="sans-serif" font-size="8" fill="#aaa">530180</text>
  <text x="679.529" y="800.828" font-family="sans-serif" font-size="8" fill="#aaa">366349</text>
  <text x="558.326" y="668.23" font-family="sans-serif" font-size="8" fill="#aaa">389496</text>
  <text x="588.044" y="302.342" font-family="sans-serif" font-size="8" fill="#aaa">512794</text>
  <text x="722.986" y="163.106" font-family="sans-serif" font-size="8" fill="#aaa">74968</text>
  <text x="708.672" y="263.864" font-family="sans-serif" font-size="8" fill="#aaa">182397</text>
  <text x="313.57" y="784.526" font-family="sans-serif" font-size="8" fill="#aaa">184226</text>
  <text x="322.046" y="342.577" font-family="sans-serif" font-size="8" fill="#aaa">202563</text>
  <text x="436.81" y="506.715" font-family="sans-serif" font-size="8" fill="#aaa">270174</text>
  <text x="152.197" y="151.958" font-family="sans-serif" font-size="8" fill="#aaa">461486</text>
  <text x="291.927" y="579.379" font-family="sans-serif" font-size="8" fill="#aaa">26985</text>
  <text x="223.001" y="290.319" font-family="sans-serif" font-size="8" fill="#aaa">29579</text>
  <text x="191.25" y="638.791" font-family="sans-serif" font-size="8" fill="#aaa">215752</text>
  <text x="483.224" y="715.163" font-family="sans-serif" font-size="8" fill="#aaa">242223</text>
  <text x="113.214" y="201.777" font-family="sans-serif" font-size="8" fill="#aaa">271334</text>
  <text x="406.509" y="609.544" font-family="sans-serif" font-size="8" fill="#aaa">334217</text>
  <text x="550.898" y="621.757" font-family="sans-serif" font-size="8" fill="#aaa">383355</text>
  <text x="817.047" y="799.753" font-family="sans-serif" font-size="8" fill="#aaa">402721</text>
  <text x="664.771" y="798.411" font-family="sans-serif" font-size="8" fill="#aaa">495700</text>
  <text x="805.859" y="129.229" font-family="sans-serif" font-size="8" fill="#aaa">501982</text>
  <text x="747.609" y="788.037" font-family="sans-serif" font-size="8" fill="#aaa">506325</text>
  <text x="776.472" y="328.559" font-family="sans-serif" font-size="8" fill="#aaa">257559</text>
  <text x="720.826" y="418.783" font-family="sans-serif" font-size="8" fill="#aaa">432488</text>
  <text x="526.036" y="313.217" font-family="sans-serif" font-size="8" fill="#aaa">443494</text>
  <text x="652.263" y="299.025" font-family="sans-serif" font-size="8" fill="#aaa">44839</text>
  <text x="429.369" y="701.499" font-family="sans-serif" font-size="8" fill="#aaa">127026</text>
  <text x="512.238" y="272.367" font-family="sans-serif" font-size="8" fill="#aaa">269640</text>
  <text x="312.9" y="327.097" font-family="sans-serif" font-size="8" fill="#aaa">349488</text>
  <text x="836.041" y="790.432" font-family="sans-serif" font-size="8" fill="#aaa">351890</text>
  <text x="528.727" y="80.1892" font-family="sans-serif" font-size="8" fill="#aaa">362713</text>
  <text x="516.907" y="301.923" font-family="sans-serif" font-size="8" fill="#aaa">402247</text>
  <text x="841.537" y="614.485" font-family="sans-serif" font-size="8" fill="#aaa">429639</text>
  <text x="411.334" y="583.249" font-family="sans-serif" font-size="8" fill="#aaa">486221</text>
  <text x="786.271" y="481.503" font-family="sans-serif" font-size="8" fill="#aaa">530952</text>
  <!-- End Star Labels -->
  <!-- Cluster Labels -->
  <text x="427.267" y="342.711" font-family="sans-serif" font-size="12" font-weight="bold" fill="#87ceeb" text-anchor="middle" dy=".3em">C2</text>
  <text x="354.813" y="375.459" font-family="sans-serif" font-size="12" font-weight="bold" fill="#87ceeb" text-anchor="middle" dy=".3em">C3</text>
  <!-- End Star Labels -->
</g>
</svg>
