<svg width="1000" height="1000" xmlns="http://www.w3.org/2000/svg" style="background-color:black;">
<!-- Generated Star Map (Stereographic Projection (North Pole to Equator)) -->
<defs>
  <clipPath id="map-circle">
    <circle cx="500" cy="500" r="500"/>
  </clipPath>
</defs>
<circle cx="500" cy="500" r="500" fill="none" stroke="#333" stroke-width="1"/>
<circle cx="500" cy="500" r="133.975" fill="none" stroke="#333" stroke-width="0.5" stroke-dasharray="4 4"/>
<circle cx="500" cy="500" r="288.675" fill="none" stroke="#333" stroke-width="0.5" stroke-dasharray="4 4"/>
<g clip-path="url(#map-circle)">
  <polyline points="1000,500 999.924,491.274 999.695,482.55 999.315,473.832 998.782,465.122 998.097,456.422 997.261,447.736 996.273,439.065 995.134,430.413 993.844,421.783 992.404,413.176 990.814,404.596 989.074,396.044 987.185,387.524 985.148,379.039 982.963,370.59 980.631,362.181 978.152,353.814 975.528,345.492 972.759,337.216 969.846,328.99 966.79,320.816 963.592,312.697 960.252,304.634 956.773,296.632 953.154,288.691 949.397,280.814 945.503,273.005 941.474,265.264 937.31,257.595 933.013,250 928.584,242.481 924.024,235.04 919.335,227.68 914.519,220.404 909.576,213.212 904.508,206.107 899.318,199.092 894.005,192.169 888.573,185.34 883.022,178.606 877.355,171.97 871.572,165.435 865.677,159.001 859.67,152.671 853.553,146.447 847.329,140.33 840.999,134.323 834.565,128.428 828.03,122.645 821.394,116.978 814.66,111.427 807.831,105.995 800.908,100.682 793.893,95.4915 786.788,90.424 779.596,85.4812 772.32,80.6647 764.96,75.976 757.519,71.4163 750,66.9873 742.405,62.6901 734.736,58.5262 726.995,54.4967 719.186,50.603 711.309,46.8461 703.368,43.2273 695.366,39.7476 687.303,36.4081 679.184,33.2098 671.01,30.1537 662.784,27.2407 654.508,24.4717 646.186,21.8476 637.819,19.3692 629.41,17.0371 620.961,14.8521 612.476,12.815 603.956,10.9262 595.404,9.18641 586.824,7.59612 578.217,6.15583 569.587,4.86597 560.935,3.72692 552.264,2.73905 543.578,1.90265 534.878,1.21797 526.168,0.685233 517.45,0.304586 508.726,0.0761524 500,5.68434e-14 491.274,0.0761524 482.55,0.304586 473.832,0.685233 465.122,1.21797 456.422,1.90265 447.736,2.73905 439.065,3.72692 430.413,4.86597 421.783,6.15583 413.176,7.59612 404.596,9.18641 396.044,10.9262 387.524,12.815 379.039,14.8521 370.59,17.0371 362.181,19.3692 353.814,21.8476 345.492,24.4717 337.216,27.2407 328.99,30.1537 320.816,33.2098 312.697,36.4081 304.634,39.7476 296.632,43.2273 288.691,46.8461 280.814,50.603 273.005,54.4967 265.264,58.5262 257.595,62.6901 250,66.9873 242.481,71.4163 235.04,75.976 227.68,80.6647 220.404,85.4812 213.212,90.424 206.107,95.4915 199.092,100.682 192.169,105.995 185.34,111.427 178.606,116.978 171.97,122.645 165.435,128.428 159.001,134.323 152.671,140.33 146.447,146.447 140.33,152.671 134.323,159.001 128.428,165.435 122.645,171.97 116.978,178.606 111.427,185.34 105.995,192.169 100.682,199.092 95.4915,206.107 90.424,213.212 85.4812,220.404 80.6647,227.68 75.976,235.04 71.4163,242.481 66.9873,250 62.6901,257.595 58.5262,265.264 54.4967,273.005 50.603,280.814 46.8461,288.691 43.2273,296.632 39.7476,304.634 36.4081,312.697 33.2098,320.816 30.1537,328.99 27.2407,337.216 24.4717,345.492 21.8476,353.814 19.3692,362.181 17.0371,370.59 14.8521,379.039 12.815,387.524 10.9262,396.044 9.18641,404.596 7.59612,413.176 6.15583,421.783 4.86597,430.413 3.72692,439.065 2.73905,447.736 1.90265,456.422 1.21797,465.122 0.685233,473.832 0.304586,482.55 0.0761524,491.274 5.68434e-14,500 0.0761524,508.726 0.304586,517.45 0.685233,526.168 1.21797,534.878 1.90265,543.578 2.73905,552.264 3.72692,560.935 4.86597,569.587 6.15583,578.217 7.59612,586.824 9.18641,595.404 10.9262,603.956 12.815,612.476 14.8521,620.961 17.0371,629.41 19.3692,637.819 21.8476,646.186 24.4717,654.508 27.2407,662.784 30.1537,671.01 33.2098,679.184 36.4081,687.303 39.7476,695.366 43.2273,703.368 46.8461,711.309 50.603,719.186 54.4967,726.995 58.5262,734.736 62.6901,742.405 66.9873,750 71.4163,757.519 75.976,764.96 80.6647,772.32 85.4812,779.596 90.424,786.788 95.4915,793.893 100.682,800.908 105.995,807.831 111.427,814.66 116.978,821.394 122.645,828.03 128.428,834.565 134.323,840.999 140.33,847.329 146.447,853.553 152.671,859.67 159.001,865.677 165.435,871.572 171.97,877.355 178.606,883.022 185.34,888.573 192.169,894.005 199.092,899.318 206.107,904.508 213.212,909.576 220.404,914.519 227.68,919.335 235.04,924.024 242.481,928.584 250,933.013 257.595,937.31 265.264,941.474 273.005,945.503 280.814,949.397 288.691,953.154 296.632,956.773 304.634,960.252 312.697,963.592 320.816,966.79 328.99,969.846 337.216,972.759 345.492,975.528 353.814,978.152 362.181,980.631 370.59,982.963 379.039,985.148 387.524,987.185 396.044,989.074 404.596,990.814 413.176,992.404 421.783,993.844 430.413,995.134 439.065,996.273 447.736,997.261 456.422,998.097 465.122,998.782 473.832,999.315 482.55,999.695 491.274,999.924 500,1000 508.726,999.924 517.45,999.695 526.168,999.315 534.878,998.782 543.578,998.097 552.264,997.261 560.935,996.273 569.587,995.134 578.217,993.844 586.824,992.404 595.404,990.814 603.956,989.074 612.476,987.185 620.961,985.148 629.41,982.963 637.819,980.631 646.186,978.152 654.508,975.528 662.784,972.759 671.01,969.846 679.184,966.79 687.303,963.592 695.366,960.252 703.368,956.773 711.309,953.154 719.186,949.397 726.995,945.503 734.736,941.474 742.405,937.31 750,933.013 757.519,928.584 764.96,924.024 772.32,919.335 779.596,914.519 786.788,909.576 793.893,904.508 800.908,899.318 807.831,894.005 814.66,888.573 821.394,883.022 828.03,877.355 834.565,871.572 840.999,865.677 847.329,859.67 853.553,853.553 859.67,847.329 865.677,840.999 871.572,834.565 877.355,828.03 883.022,821.394 888.573,814.66 894.005,807.831 899.318,800.908 904.508,793.893 909.576,786.788 914.519,779.596 919.335,772.32 924.024,764.96 928.584,757.519 933.013,750 937.31,742.405 941.474,734.736 945.503,726.995 949.397,719.186 953.154,711.309 956.773,703.368 960.252,695.366 963.592,687.303 966.79,679.184 969.846,671.01 972.759,662.784 975.528,654.508 978.152,646.186 980.631,637.819 982.963,629.41 985.148,620.961 987.185,612.476 989.074,603.956 990.814,595.404 992.404,586.824 993.844,578.217 995.134,569.587 996.273,560.935 997.261,552.264 998.097,543.578 998.782,534.878 999.315,526.168 999.695,517.45 999.924,508.726 1000,500 " fill="none" stroke="#ff0000" stroke-width="1.5"/>
  <polyline points="1000,500 996.477,492.049 992.853,484.209 989.132,476.481 985.315,468.864 981.407,461.358 977.41,453.963 973.327,446.679 969.161,439.505 964.914,432.441 960.589,425.488 956.188,418.644 951.715,411.908 947.171,405.282 942.559,398.763 937.881,392.353 933.139,386.049 928.336,379.851 923.473,373.76 918.554,367.774 913.578,361.892 908.55,356.114 903.469,350.44 898.339,344.868 893.161,339.399 887.937,334.03 882.668,328.762 877.356,323.595 872.002,318.526 866.609,313.555 861.177,308.683 855.708,303.907 850.203,299.228 844.664,294.644 839.091,290.155 833.487,285.76 827.852,281.458 822.188,277.25 816.495,273.133 810.775,269.107 805.028,265.172 799.257,261.327 793.461,257.572 787.642,253.905 781.801,250.325 775.938,246.833 770.054,243.428 764.151,240.109 758.229,236.875 752.289,233.725 746.331,230.66 740.356,227.679 734.366,224.78 728.36,221.964 722.34,219.23 716.305,216.577 710.257,214.005 704.197,211.513 698.124,209.101 692.039,206.768 685.943,204.514 679.837,202.339 673.721,200.241 667.594,198.221 661.459,196.278 655.315,194.412 649.163,192.622 643.003,190.908 636.835,189.27 630.661,187.706 624.48,186.218 618.292,184.804 612.099,183.465 605.901,182.2 599.697,181.008 593.488,179.89 587.275,178.845 581.058,177.873 574.837,176.974 568.613,176.148 562.385,175.394 556.155,174.712 549.922,174.102 543.686,173.565 537.449,173.099 531.21,172.706 524.97,172.384 518.728,172.133 512.486,171.954 506.243,171.847 500,171.811 493.757,171.847 487.514,171.954 481.272,172.133 475.03,172.384 468.79,172.706 462.551,173.099 456.314,173.565 450.078,174.102 443.845,174.712 437.615,175.394 431.387,176.148 425.163,176.974 418.942,177.873 412.725,178.845 406.512,179.89 400.303,181.008 394.099,182.2 387.901,183.465 381.708,184.804 375.52,186.218 369.339,187.706 363.165,189.27 356.997,190.908 350.837,192.622 344.685,194.412 338.541,196.278 332.406,198.221 326.279,200.241 320.163,202.339 314.057,204.514 307.961,206.768 301.876,209.101 295.803,211.513 289.743,214.005 283.695,216.577 277.66,219.23 271.64,221.964 265.634,224.78 259.644,227.679 253.669,230.66 247.711,233.725 241.771,236.875 235.849,240.109 229.946,243.428 224.062,246.833 218.199,250.325 212.358,253.905 206.539,257.572 200.743,261.327 194.972,265.172 189.225,269.107 183.505,273.133 177.812,277.25 172.148,281.458 166.513,285.76 160.909,290.155 155.336,294.644 149.797,299.228 144.292,303.907 138.823,308.683 133.391,313.555 127.998,318.526 122.644,323.595 117.332,328.762 112.063,334.03 106.839,339.399 101.661,344.868 96.5307,350.44 91.4504,356.114 86.4217,361.892 81.4464,367.774 76.5265,373.76 71.664,379.851 66.8609,386.049 62.1192,392.353 57.4412,398.763 52.8291,405.282 48.2852,411.908 43.8118,418.644 39.4114,425.488 35.0864,432.441 30.8394,439.505 26.673,446.679 22.5899,453.963 18.5928,461.358 14.6847,468.864 10.8683,476.481 7.14668,484.209 3.52288,492.049 5.68434e-14,500 -3.41877,508.062 -6.73016,516.235 -9.93083,524.519 -13.0174,532.913 -15.9864,541.418 -18.8342,550.032 -21.5572,558.754 -24.1518,567.586 -26.6142,576.524 -28.9406,585.57 -31.127,594.721 -33.1695,603.976 -35.0641,613.335 -36.8068,622.796 -38.3933,632.357 -39.8196,642.017 -41.0813,651.774 -42.1742,661.626 -43.0939,671.57 -43.8361,681.606 -44.3965,691.729 -44.7705,701.938 -44.9537,712.23 -44.9417,722.602 -44.7299,733.05 -44.3139,743.572 -43.6893,754.163 -42.8515,764.82 -41.7962,775.539 -40.5188,786.316 -39.015,797.146 -37.2805,808.025 -35.311,818.947 -33.1023,829.908 -30.6503,840.903 -27.9509,851.925 -25.0002,862.969 -21.7944,874.028 -18.3298,885.097 -14.6028,896.169 -10.6101,907.237 -6.34842,918.294 -1.81472,929.333 2.99381,940.346 8.07982,951.326 13.4457,962.263 19.0935,973.151 25.0253,983.981 31.2426,994.744 37.7467,1005.43 44.5386,1016.03 51.619,1026.54 58.9884,1036.95 66.6466,1047.24 74.5933,1057.41 82.8278,1067.44 91.349,1077.34 100.155,1087.08 109.245,1096.66 118.615,1106.07 128.263,1115.29 138.185,1124.32 148.379,1133.15 158.839,1141.76 169.562,1150.15 180.541,1158.31 191.772,1166.22 203.248,1173.88 214.962,1181.27 226.909,1188.39 239.079,1195.24 251.466,1201.79 264.061,1208.04 276.856,1213.98 289.84,1219.6 303.004,1224.91 316.339,1229.88 329.833,1234.51 343.476,1238.79 357.257,1242.73 371.164,1246.31 385.186,1249.52 399.311,1252.37 413.526,1254.85 427.818,1256.96 442.176,1258.68 456.586,1260.02 471.036,1260.99 485.511,1261.56 500,1261.76 514.489,1261.56 528.964,1260.99 543.414,1260.02 557.824,1258.68 572.182,1256.96 586.474,1254.85 600.689,1252.37 614.814,1249.52 628.836,1246.31 642.743,1242.73 656.524,1238.79 670.167,1234.51 683.661,1229.88 696.996,1224.91 710.16,1219.6 723.144,1213.98 735.939,1208.04 748.534,1201.79 760.921,1195.24 773.091,1188.39 785.038,1181.27 796.752,1173.88 808.228,1166.22 819.459,1158.31 830.438,1150.15 841.161,1141.76 851.621,1133.15 861.815,1124.32 871.737,1115.29 881.385,1106.07 890.755,1096.66 899.845,1087.08 908.651,1077.34 917.172,1067.44 925.407,1057.41 933.353,1047.24 941.012,1036.95 948.381,1026.54 955.461,1016.03 962.253,1005.43 968.757,994.744 974.975,983.981 980.906,973.151 986.554,962.263 991.92,951.326 997.006,940.346 1001.81,929.333 1006.35,918.294 1010.61,907.237 1014.6,896.169 1018.33,885.097 1021.79,874.028 1025,862.969 1027.95,851.925 1030.65,840.903 1033.1,829.908 1035.31,818.947 1037.28,808.025 1039.02,797.146 1040.52,786.316 1041.8,775.539 1042.85,764.82 1043.69,754.163 1044.31,743.572 1044.73,733.05 1044.94,722.602 1044.95,712.23 1044.77,701.938 1044.4,691.729 1043.84,681.606 1043.09,671.57 1042.17,661.626 1041.08,651.774 1039.82,642.017 1038.39,632.357 1036.81,622.796 1035.06,613.335 1033.17,603.976 1031.13,594.721 1028.94,585.57 1026.61,576.524 1024.15,567.586 1021.56,558.754 1018.83,550.032 1015.99,541.418 1013.02,532.913 1009.93,524.519 1006.73,516.235 1003.42,508.062 1000,500 " fill="none" stroke="#ffff00" stroke-width="1.5" stroke-dasharray="5 5"/>
  <!-- Cluster Regions -->
  <polygon points="330.858,294.789 330.534,295.438 330.102,295.915 329.574,296.206 328.964,296.298 328.29,296.189 327.572,295.877 326.831,295.372 326.09,294.686 325.372,293.839 324.702,292.856 324.1,291.768 323.587,290.61 323.181,289.418 322.894,288.23 322.737,287.086 322.714,286.022 322.825,285.072 323.066,284.266 323.427,283.629 323.897,283.179 324.459,282.929 325.094,282.885 325.783,283.045 326.503,283.402 327.233,283.944 327.951,284.653 328.637,285.505 329.27,286.476 329.834,287.536 330.313,288.654 330.693,289.798 330.965,290.935 331.121,292.033 331.155,293.061 331.067,293.988 330.858,294.789" fill="rgba(100, 100, 255, 0.1)" stroke="rgba(150, 150, 255, 0.5)" stroke-width="1"/>
  <polygon points="759.208,860.369 758.92,859.532 758.505,858.697 757.976,857.89 757.351,857.136 756.65,856.458 755.894,855.878 755.107,855.412 754.315,855.073 753.54,854.873 752.807,854.815 752.138,854.9 751.551,855.127 751.064,855.486 750.69,855.967 750.441,856.555 750.322,857.233 750.338,857.98 750.486,858.775 750.764,859.594 751.163,860.414 751.671,861.209 752.275,861.956 752.956,862.634 753.695,863.22 754.47,863.698 755.258,864.052 756.036,864.271 756.779,864.347 757.465,864.277 758.072,864.063 758.58,863.71 758.975,863.229 759.241,862.635 759.371,861.945 759.36,861.182 759.208,860.369" fill="rgba(255, 200, 100, 0.1)" stroke="rgba(255, 220, 150, 0.5)" stroke-width="1"/>
  <polygon points="7.45521,329.911 6.23452,328.471 4.84374,327.247 3.32443,326.277 1.7228,325.595 0.0882464,325.222 -1.52822,325.172 -3.07567,325.447 -4.50503,326.039 -5.77085,326.93 -6.8329,328.09 -7.65766,329.482 -8.21944,331.062 -8.50128,332.779 -8.49543,334.578 -8.20347,336.405 -7.63612,338.201 -6.81263,339.912 -5.76001,341.488 -4.51192,342.882 -3.10747,344.054 -1.58989,344.969 -0.00517258,345.604 1.59933,345.941 3.17622,345.971 4.67934,345.694 6.06498,345.118 7.29295,344.261 8.32759,343.147 9.13869,341.808 9.7022,340.281 10.001,338.612 10.0252,336.849 9.77278,335.043 9.24975,333.249 8.46998,331.52 7.45521,329.911" fill="rgba(100, 100, 255, 0.1)" stroke="rgba(150, 150, 255, 0.5)" stroke-width="1"/>
  <polygon points="-140.651,-179.2 -142.567,-176.928 -143.954,-174.347 -144.766,-171.541 -144.978,-168.605 -144.585,-165.634 -143.604,-162.725 -142.07,-159.97 -140.039,-157.455 -137.58,-155.255 -134.775,-153.434 -131.714,-152.04 -128.493,-151.11 -125.212,-150.664 -121.967,-150.71 -118.852,-151.24 -115.958,-152.234 -113.363,-153.66 -111.14,-155.477 -109.349,-157.632 -108.04,-160.065 -107.249,-162.707 -106.998,-165.487 -107.298,-168.326 -108.143,-171.143 -109.512,-173.858 -111.372,-176.389 -113.674,-178.66 -116.354,-180.599 -119.337,-182.142 -122.537,-183.234 -125.857,-183.837 -129.195,-183.924 -132.446,-183.486 -135.505,-182.532 -138.27,-181.088 -140.651,-179.2" fill="rgba(255, 200, 100, 0.1)" stroke="rgba(255, 220, 150, 0.5)" stroke-width="1"/>
  <!-- End Cluster Regions -->
  <circle cx="326.984" cy="289.59" r="1.86417" fill="#aabfff"/>
  <circle cx="328.362" cy="289.445" r="5.50715" fill="#ffeea8"/>
  <circle cx="333.502" cy="289.247" r="1.46373" fill="#aabfff"/>
  <circle cx="754.785" cy="859.594" r="1.56597" fill="#ffeea8"/>
  <circle cx="684.824" cy="391.698" r="2.60527" fill="#ffeea8"/>
  <circle cx="373.819" cy="733.961" r="1.49315" fill="#f8f7ff"/>
  <circle cx="388.181" cy="686.336" r="1.42151" fill="#ffeea8"/>
  <circle cx="124.154" cy="370.278" r="1.01269" fill="#ffeea8"/>
  <circle cx="561.546" cy="655.407" r="2.14547" fill="#ffeea8"/>
  <circle cx="715.736" cy="704.413" r="1.98898" fill="#ffeea8"/>
  <circle cx="814.563" cy="779.65" r="2.24017" fill="#ffeea8"/>
  <circle cx="272.927" cy="165.828" r="2.83368" fill="#ffeea8"/>
  <circle cx="318.555" cy="920.287" r="1.03454" fill="#ffeea8"/>
  <circle cx="888.829" cy="604.89" r="1.2647" fill="#f8f7ff"/>
  <circle cx="330.539" cy="376.862" r="1.35699" fill="#ffeea8"/>
  <circle cx="228.88" cy="745.56" r="1.89678" fill="#ffeea8"/>
  <circle cx="594.215" cy="880.219" r="2.25772" fill="#aabfff"/>
  <circle cx="454.532" cy="801.572" r="1.24779" fill="#ffeea8"/>
  <circle cx="434.809" cy="808.147" r="1.25108" fill="#ffeea8"/>
  <circle cx="558.679" cy="293.088" r="2.26936" fill="#ffeea8"/>
  <circle cx="570.245" cy="223.651" r="1.35984" fill="#ffeea8"/>
  <circle cx="506.904" cy="602.407" r="1.52718" fill="#ffeea8"/>
  <circle cx="442.5" cy="819.829" r="1.42902" fill="#cad8ff"/>
  <circle cx="390.347" cy="376.431" r="2.03656" fill="#ffeea8"/>
  <circle cx="192.844" cy="531.995" r="1.58864" fill="#aabfff"/>
  <circle cx="831.094" cy="617.08" r="1.85863" fill="#cad8ff"/>
  <circle cx="199.383" cy="366.832" r="1.14217" fill="#ffeea8"/>
  <circle cx="415.242" cy="415.695" r="3.61567" fill="#ffeea8"/>
  <circle cx="682.835" cy="642.576" r="2.52536" fill="#ffeea8"/>
  <circle cx="448.929" cy="606.954" r="4.39603" fill="#ffeea8"/>
  <circle cx="293.699" cy="670.775" r="1.10725" fill="#ffeea8"/>
  <circle cx="425.775" cy="598.13" r="1.11093" fill="#ffeea8"/>
  <circle cx="255.749" cy="181.527" r="1.27773" fill="#cad8ff"/>
  <circle cx="626.06" cy="648.101" r="1.27058" fill="#ffeea8"/>
  <circle cx="800.218" cy="314.839" r="1.15624" fill="#ffeea8"/>
  <circle cx="632.221" cy="674.059" r="2.21457" fill="#ffeea8"/>
  <circle cx="583.751" cy="569.134" r="3.63462" fill="#aabfff"/>
  <circle cx="654.187" cy="403.947" r="1.4835" fill="#ffeea8"/>
  <circle cx="436.827" cy="365.225" r="1.42167" fill="#ffeea8"/>
  <circle cx="758.26" cy="161.069" r="1.05244" fill="#aabfff"/>
  <circle cx="491.642" cy="331.208" r="1.70513" fill="#aabfff"/>
  <circle cx="471.24" cy="564.44" r="1.19909" fill="#ffeea8"/>
  <circle cx="435.58" cy="380.067" r="1.56977" fill="#ffeea8"/>
  <circle cx="695.286" cy="391.385" r="1.08364" fill="#ffeea8"/>
  <circle cx="403.851" cy="35.4951" r="1.56183" fill="#ffeea8"/>
  <circle cx="441.231" cy="482.914" r="1.3878" fill="#f8f7ff"/>
  <circle cx="544.671" cy="302.236" r="1.34312" fill="#ffeea8"/>
  <circle cx="350.179" cy="593.467" r="2.08719" fill="#aabfff"/>
  <circle cx="267.455" cy="463.981" r="1.59263" fill="#ffeea8"/>
  <circle cx="692.431" cy="467.73" r="3.16157" fill="#ffeea8"/>
  <circle cx="507.15" cy="782.627" r="1.05484" fill="#f8f7ff"/>
  <circle cx="381.256" cy="606.948" r="1.09296" fill="#ffeea8"/>
  <circle cx="558.185" cy="421.166" r="3.7383" fill="#fff4ea"/>
  <circle cx="383.355" cy="720.37" r="3.65092" fill="#ffeea8"/>
  <circle cx="788.053" cy="184.583" r="1.38278" fill="#ffeea8"/>
  <circle cx="211.06" cy="329.739" r="1.53247" fill="#ffeea8"/>
  <circle cx="594.41" cy="218.378" r="1.01567" fill="#ffeea8"/>
  <circle cx="469.388" cy="453.094" r="1.04569" fill="#aabfff"/>
  <circle cx="304.203" cy="680.601" r="1.88214" fill="#ffeea8"/>
  <circle cx="731.887" cy="711.796" r="1.17307" fill="#ffeea8"/>
  <circle cx="528.718" cy="721.545" r="1.10014" fill="#ffeea8"/>
  <circle cx="550.754" cy="793.583" r="1.79727" fill="#aabfff"/>
  <circle cx="461.587" cy="296.348" r="1.09921" fill="#ffeea8"/>
  <circle cx="445.125" cy="795.001" r="1.09149" fill="#ffeea8"/>
  <circle cx="345.705" cy="974.388" r="1.63043" fill="#ffeea8"/>
  <circle cx="225.619" cy="624.944" r="2.61026" fill="#f8f7ff"/>
  <circle cx="136.938" cy="604.062" r="1.02006" fill="#cad8ff"/>
  <circle cx="564.671" cy="568.635" r="1.68509" fill="#ffeea8"/>
  <circle cx="507.347" cy="954.908" r="1.07394" fill="#ffeea8"/>
  <circle cx="663.658" cy="927.731" r="2.73109" fill="#ffeea8"/>
  <circle cx="692.614" cy="396.358" r="2.56046" fill="#ffeea8"/>
  <circle cx="727.527" cy="221.696" r="1.65735" fill="#ffeea8"/>
  <circle cx="230.931" cy="685.189" r="1.4696" fill="#cad8ff"/>
  <circle cx="554.903" cy="591.353" r="1.69587" fill="#ffeea8"/>
  <circle cx="790.585" cy="616.751" r="1.60344" fill="#ffeea8"/>
  <circle cx="439.629" cy="74.5343" r="2.69708" fill="#ffeea8"/>
  <circle cx="616.748" cy="848.625" r="3.42451" fill="#aabfff"/>
  <circle cx="491.761" cy="415.888" r="1.29595" fill="#aabfff"/>
  <circle cx="360.976" cy="259.812" r="1.80743" fill="#ffeea8"/>
  <circle cx="385.914" cy="438.774" r="1.70177" fill="#fff4ea"/>
  <circle cx="431.053" cy="232.604" r="1.049" fill="#cad8ff"/>
  <circle cx="248.991" cy="219.829" r="2.28093" fill="#ffeea8"/>
  <circle cx="609.609" cy="484.534" r="1.05292" fill="#ffeea8"/>
  <circle cx="372.808" cy="349.764" r="1.90451" fill="#ffeea8"/>
  <circle cx="792.391" cy="633.974" r="1.07321" fill="#ffeea8"/>
  <circle cx="473.257" cy="319.343" r="1.96879" fill="#ffeea8"/>
  <circle cx="312.697" cy="868.754" r="1.34902" fill="#ffeea8"/>
  <circle cx="520.486" cy="315.262" r="3.87791" fill="#ffeea8"/>
  <circle cx="565.705" cy="646.114" r="1.54462" fill="#ffeea8"/>
  <circle cx="309.456" cy="296.397" r="1.23824" fill="#ffeea8"/>
  <circle cx="610.827" cy="480.829" r="4.45774" fill="#ffeea8"/>
  <circle cx="476.286" cy="345.785" r="2.13713" fill="#ffeea8"/>
  <circle cx="819.623" cy="490.593" r="3.99406" fill="#ffeea8"/>
  <circle cx="218.813" cy="442.947" r="1.33513" fill="#ffeea8"/>
  <circle cx="536.539" cy="417.271" r="1.91422" fill="#ffeea8"/>
  <circle cx="588.207" cy="324.809" r="1.53631" fill="#ffeea8"/>
  <circle cx="394.597" cy="325.016" r="1.13138" fill="#ffeea8"/>
  <circle cx="387.6" cy="920.512" r="3.11334" fill="#ffeea8"/>
  <circle cx="432.986" cy="573.757" r="1.27694" fill="#ffeea8"/>
  <circle cx="802.569" cy="696.265" r="1.67817" fill="#ffeea8"/>
  <circle cx="865.808" cy="614.37" r="1.94057" fill="#ffeea8"/>
  <circle cx="730.929" cy="365.662" r="1.87159" fill="#ffeea8"/>
  <circle cx="656.848" cy="331.629" r="1.6613" fill="#cad8ff"/>
  <circle cx="699.277" cy="587.316" r="2.36172" fill="#cad8ff"/>
  <circle cx="924.534" cy="531.4" r="1.12304" fill="#fff4ea"/>
  <circle cx="306.12" cy="591.421" r="1.05901" fill="#cad8ff"/>
  <circle cx="397.983" cy="425.743" r="1.75582" fill="#ffeea8"/>
  <circle cx="518.025" cy="387.004" r="1.55778" fill="#aabfff"/>
  <circle cx="639.134" cy="559.445" r="2.28748" fill="#ffeea8"/>
  <circle cx="679.025" cy="449.218" r="2.61796" fill="#ffeea8"/>
  <circle cx="133.877" cy="185.347" r="1.49999" fill="#ffeea8"/>
  <circle cx="619.402" cy="772.299" r="1.39667" fill="#ffeea8"/>
  <circle cx="441.43" cy="262.767" r="3.32966" fill="#ffeea8"/>
  <circle cx="386.844" cy="628.022" r="1.79075" fill="#ffeea8"/>
  <circle cx="288.382" cy="531.694" r="1.10975" fill="#ffeea8"/>
  <circle cx="227.205" cy="311.585" r="2.17044" fill="#f8f7ff"/>
  <circle cx="411.459" cy="59.4656" r="1.25903" fill="#fff4ea"/>
  <circle cx="389.895" cy="87.6934" r="1.92242" fill="#cad8ff"/>
  <circle cx="155.041" cy="415.942" r="2.0134" fill="#cad8ff"/>
  <circle cx="581.189" cy="633.656" r="2.07232" fill="#ffeea8"/>
  <circle cx="579.608" cy="437.784" r="1.15695" fill="#ffeea8"/>
  <circle cx="404.135" cy="406.574" r="1.32519" fill="#ffeea8"/>
  <circle cx="699.167" cy="62.7374" r="1.85932" fill="#ffeea8"/>
  <circle cx="300.76" cy="395.906" r="3.04478" fill="#ffeea8"/>
  <circle cx="394.137" cy="103.309" r="1.32175" fill="#ffeea8"/>
  <circle cx="448.22" cy="632.531" r="1.74803" fill="#ffeea8"/>
  <circle cx="298.764" cy="596.061" r="1.78181" fill="#ffeea8"/>
  <circle cx="535.794" cy="411.356" r="1.80826" fill="#cad8ff"/>
  <circle cx="58.6678" cy="537.718" r="1.61919" fill="#ffeea8"/>
  <circle cx="307.377" cy="544.266" r="1.23481" fill="#aabfff"/>
  <circle cx="284.38" cy="489.134" r="1.54907" fill="#ffeea8"/>
  <circle cx="684.338" cy="282.729" r="1.19216" fill="#ffeea8"/>
  <circle cx="663.46" cy="162.171" r="1.26894" fill="#ffeea8"/>
  <circle cx="679.699" cy="241.372" r="2.81382" fill="#ffeea8"/>
  <circle cx="849.927" cy="233.591" r="2.44266" fill="#aabfff"/>
  <circle cx="782.812" cy="332.142" r="1.34574" fill="#ffeea8"/>
  <circle cx="478.699" cy="507.711" r="1.67069" fill="#aabfff"/>
  <circle cx="500.831" cy="45.9911" r="2.10736" fill="#f8f7ff"/>
  <circle cx="804.052" cy="234.079" r="2.32007" fill="#aabfff"/>
  <circle cx="888.548" cy="355.816" r="1.46817" fill="#cad8ff"/>
  <circle cx="509.506" cy="760.176" r="1.10724" fill="#ffeea8"/>
  <circle cx="304.649" cy="953.993" r="1.43825" fill="#ffeea8"/>
  <circle cx="554.972" cy="910.925" r="1.94038" fill="#ffeea8"/>
  <circle cx="197.853" cy="390.012" r="4.24209" fill="#aabfff"/>
  <circle cx="163.799" cy="283.412" r="1.51463" fill="#aabfff"/>
  <circle cx="231.183" cy="552.709" r="2.09801" fill="#ffeea8"/>
  <circle cx="184.371" cy="730.861" r="1.35564" fill="#ffeea8"/>
  <circle cx="801.851" cy="417.164" r="3.6651" fill="#ffeea8"/>
  <circle cx="599.209" cy="245.305" r="1.12414" fill="#ffeea8"/>
  <circle cx="782.656" cy="871.018" r="1.6019" fill="#ffeea8"/>
  <circle cx="488.532" cy="656.605" r="1.98005" fill="#ffeea8"/>
  <circle cx="562.698" cy="315.152" r="1.67694" fill="#ffeea8"/>
  <circle cx="403.164" cy="728.756" r="1.38796" fill="#ffeea8"/>
  <circle cx="620.986" cy="550.041" r="2.98796" fill="#ffeea8"/>
  <circle cx="613.457" cy="340.733" r="1.07341" fill="#ffeea8"/>
  <circle cx="355.258" cy="502.641" r="1.03146" fill="#ffeea8"/>
  <circle cx="635.178" cy="699.753" r="1.59005" fill="#ffeea8"/>
  <circle cx="489.937" cy="356.687" r="2.07259" fill="#ffeea8"/>
  <circle cx="150.357" cy="668.489" r="1.78666" fill="#aabfff"/>
  <circle cx="482.289" cy="165.029" r="1.13858" fill="#ffeea8"/>
  <circle cx="448.644" cy="339.494" r="3.92819" fill="#ffeea8"/>
  <circle cx="494.093" cy="598.183" r="1.90931" fill="#ffeea8"/>
  <circle cx="498.5" cy="235.842" r="1.81695" fill="#ffeea8"/>
  <circle cx="641.702" cy="537.898" r="3.16601" fill="#ffeea8"/>
  <circle cx="456.833" cy="476.735" r="1.75794" fill="#ffeea8"/>
  <circle cx="730.315" cy="700.077" r="1.1138" fill="#ffeea8"/>
  <circle cx="130.296" cy="807.777" r="1.24846" fill="#ffeea8"/>
  <circle cx="655.911" cy="446.187" r="1.75847" fill="#cad8ff"/>
  <circle cx="357.258" cy="745.86" r="1.39412" fill="#ffeea8"/>
  <circle cx="371.321" cy="905.627" r="1.98506" fill="#ffeea8"/>
  <circle cx="870.026" cy="300.004" r="1.52656" fill="#ffeea8"/>
  <circle cx="519.888" cy="591.303" r="1.46304" fill="#ffeea8"/>
  <circle cx="328.128" cy="185.822" r="1.72977" fill="#ffeea8"/>
  <circle cx="751.696" cy="104.581" r="1.8774" fill="#aabfff"/>
  <circle cx="419.418" cy="327.62" r="1.47795" fill="#cad8ff"/>
  <circle cx="821.675" cy="545.155" r="1.17141" fill="#ffeea8"/>
  <circle cx="521.398" cy="284.851" r="1.37494" fill="#ffeea8"/>
  <circle cx="807.823" cy="492.478" r="1.11511" fill="#ffeea8"/>
  <circle cx="786.308" cy="705.121" r="1.05195" fill="#ffeea8"/>
  <circle cx="77.424" cy="467.861" r="3.08896" fill="#aabfff"/>
  <circle cx="549.067" cy="693.992" r="4.19021" fill="#aabfff"/>
  <circle cx="765.816" cy="418.491" r="1.66026" fill="#ffeea8"/>
  <circle cx="144.81" cy="615.803" r="1.38666" fill="#ffeea8"/>
  <circle cx="651.316" cy="925.178" r="2.52918" fill="#ffeea8"/>
  <circle cx="399.494" cy="305.538" r="1.72181" fill="#ffeea8"/>
  <circle cx="143.893" cy="305.064" r="3.08978" fill="#ffeea8"/>
  <circle cx="626.239" cy="470.033" r="1.17557" fill="#ffeea8"/>
  <circle cx="506.256" cy="597.291" r="3.9019" fill="#ffeea8"/>
  <circle cx="411.262" cy="206.813" r="1.2399" fill="#ffeea8"/>
  <circle cx="876.383" cy="417.869" r="2.04037" fill="#aabfff"/>
  <circle cx="338.294" cy="317.444" r="3.01998" fill="#f8f7ff"/>
  <circle cx="306.113" cy="553.619" r="1.17673" fill="#ffeea8"/>
  <circle cx="687.067" cy="416.573" r="1.61942" fill="#ffeea8"/>
  <circle cx="569.876" cy="486.701" r="1.48209" fill="#ffeea8"/>
  <circle cx="222.966" cy="388.382" r="2.87616" fill="#ffeea8"/>
  <circle cx="378.582" cy="891.609" r="1.23515" fill="#ffeea8"/>
  <circle cx="627.505" cy="510.518" r="2.71809" fill="#ffeea8"/>
  <circle cx="775.946" cy="469.408" r="1.04596" fill="#ffeea8"/>
  <circle cx="554.375" cy="262.962" r="1.80489" fill="#aabfff"/>
  <circle cx="252.723" cy="580.317" r="3.16207" fill="#ffeea8"/>
  <circle cx="543.442" cy="327.186" r="2.86497" fill="#ffeea8"/>
  <circle cx="377.427" cy="814.66" r="1.1743" fill="#ffeea8"/>
  <circle cx="526.421" cy="495.616" r="1.52788" fill="#ffeea8"/>
  <circle cx="905.586" cy="424.258" r="1.00796" fill="#ffeea8"/>
  <circle cx="641.62" cy="360.102" r="1.17147" fill="#ffeea8"/>
  <circle cx="686.931" cy="77.5265" r="2.30127" fill="#ffeea8"/>
  <circle cx="866.368" cy="633.758" r="1.16108" fill="#f8f7ff"/>
  <circle cx="597.214" cy="315.087" r="1.521" fill="#ffeea8"/>
  <circle cx="498.477" cy="683.796" r="2.70845" fill="#ffeea8"/>
  <circle cx="892.257" cy="427.278" r="1.35041" fill="#ffeea8"/>
  <circle cx="514.774" cy="467.115" r="2.11575" fill="#cad8ff"/>
  <circle cx="710.233" cy="702.773" r="1.83532" fill="#ffeea8"/>
  <circle cx="941.775" cy="593.746" r="1.10851" fill="#ffeea8"/>
  <circle cx="391.465" cy="506.163" r="2.28774" fill="#aabfff"/>
  <circle cx="306.637" cy="598.906" r="1.43288" fill="#ffeea8"/>
  <circle cx="565.632" cy="565.327" r="1.02377" fill="#cad8ff"/>
  <circle cx="334.064" cy="401.606" r="2.25253" fill="#ffeea8"/>
  <circle cx="495.876" cy="246.508" r="2.96769" fill="#ffeea8"/>
  <circle cx="247.838" cy="871.403" r="1.01097" fill="#f8f7ff"/>
  <circle cx="628.594" cy="421.676" r="1.08364" fill="#fff4ea"/>
  <circle cx="546.441" cy="618.258" r="2.39203" fill="#ffeea8"/>
  <circle cx="352.059" cy="525.862" r="1.57201" fill="#fff4ea"/>
  <circle cx="564.081" cy="220.086" r="1.33806" fill="#ffeea8"/>
  <circle cx="380.1" cy="525.641" r="1.60723" fill="#ffeea8"/>
  <circle cx="447.282" cy="687.346" r="1.68929" fill="#ffeea8"/>
  <circle cx="669.152" cy="228.4" r="1.19839" fill="#ffeea8"/>
  <circle cx="335.968" cy="549.06" r="1.26679" fill="#ffeea8"/>
  <circle cx="236.55" cy="492.222" r="2.68693" fill="#ffeea8"/>
  <circle cx="521.116" cy="438.996" r="3.16384" fill="#aabfff"/>
  <circle cx="297.643" cy="792.224" r="1.61306" fill="#ffeea8"/>
  <circle cx="560.318" cy="315.069" r="1.93591" fill="#ffeea8"/>
  <circle cx="465.865" cy="469.961" r="3.37663" fill="#ffeea8"/>
  <circle cx="643.617" cy="111.258" r="3.29048" fill="#ffeea8"/>
  <circle cx="200.067" cy="423.152" r="1.42666" fill="#ffeea8"/>
  <circle cx="621.325" cy="844.351" r="1.11827" fill="#ffeea8"/>
  <circle cx="519.487" cy="438.914" r="1.66938" fill="#ffeea8"/>
  <circle cx="557.727" cy="905.059" r="1.47999" fill="#ffeea8"/>
  <circle cx="934.587" cy="576.174" r="1.14717" fill="#ffeea8"/>
  <circle cx="346.309" cy="481.906" r="1.5626" fill="#ffeea8"/>
  <circle cx="712.244" cy="455.77" r="1.86333" fill="#ffeea8"/>
  <circle cx="672.173" cy="755.171" r="1.4606" fill="#ffeea8"/>
  <circle cx="676.332" cy="86.5631" r="2.1573" fill="#cad8ff"/>
  <circle cx="510.877" cy="571.2" r="1.6294" fill="#aabfff"/>
  <circle cx="801.582" cy="872.45" r="3.08979" fill="#ffeea8"/>
  <circle cx="367.854" cy="188.94" r="3.26343" fill="#ffeea8"/>
  <circle cx="469.372" cy="167.048" r="1.45145" fill="#f8f7ff"/>
  <circle cx="239.095" cy="115.906" r="1.43687" fill="#ffeea8"/>
  <circle cx="745.396" cy="526.508" r="1.3859" fill="#ffeea8"/>
  <circle cx="66.1914" cy="384.01" r="1.54817" fill="#ffeea8"/>
  <circle cx="836.494" cy="664.905" r="3.4996" fill="#ffeea8"/>
  <circle cx="426.91" cy="429.959" r="1.0104" fill="#ffeea8"/>
  <circle cx="786.067" cy="474.301" r="3.08761" fill="#ffeea8"/>
  <circle cx="467.089" cy="420.009" r="3.20104" fill="#fff4ea"/>
  <circle cx="189.41" cy="307.112" r="1.92031" fill="#ffeea8"/>
  <circle cx="295.084" cy="615.293" r="2.79305" fill="#ffeea8"/>
  <circle cx="495.192" cy="126.781" r="1.79293" fill="#ffeea8"/>
  <circle cx="131.032" cy="373.94" r="1.3797" fill="#ffeea8"/>
  <circle cx="48.3859" cy="595.814" r="3.42918" fill="#ffeea8"/>
  <circle cx="253.56" cy="739.516" r="1.22848" fill="#ffeea8"/>
  <circle cx="557.835" cy="620.149" r="3.80933" fill="#ffeea8"/>
  <circle cx="519.371" cy="569.652" r="1.06386" fill="#ffeea8"/>
  <circle cx="655.609" cy="97.6739" r="1.26704" fill="#ffeea8"/>
  <circle cx="401.935" cy="530.675" r="1.20205" fill="#ffeea8"/>
  <circle cx="849.164" cy="756.715" r="1.89161" fill="#aabfff"/>
  <circle cx="733.036" cy="901.376" r="1.24702" fill="#ffeea8"/>
  <circle cx="853.416" cy="833.298" r="3.37478" fill="#ffeea8"/>
  <circle cx="202.938" cy="483.115" r="2.74033" fill="#aabfff"/>
  <circle cx="569.947" cy="893.515" r="2.1551" fill="#ffeea8"/>
  <circle cx="420.754" cy="520.659" r="1.38244" fill="#ffeea8"/>
  <circle cx="861.37" cy="618.177" r="1.24366" fill="#ffeea8"/>
  <circle cx="472.273" cy="228.392" r="3.22533" fill="#ffeea8"/>
  <circle cx="977.127" cy="622.047" r="1.22672" fill="#ffeea8"/>
  <circle cx="660.324" cy="681.734" r="2.09643" fill="#aabfff"/>
  <circle cx="674.542" cy="602.432" r="4.67734" fill="#aabfff"/>
  <circle cx="898.154" cy="543.513" r="1.72441" fill="#aabfff"/>
  <circle cx="387.893" cy="472.727" r="1.38521" fill="#aabfff"/>
  <circle cx="779.521" cy="428.695" r="2.66233" fill="#ffeea8"/>
  <circle cx="511.797" cy="946.43" r="1.79134" fill="#aabfff"/>
  <circle cx="500.249" cy="855.846" r="1.85296" fill="#cad8ff"/>
  <circle cx="340.565" cy="138.194" r="1.00901" fill="#ffeea8"/>
  <circle cx="687.202" cy="709.851" r="3.63718" fill="#ffeea8"/>
  <circle cx="394.823" cy="535.937" r="2.51858" fill="#ffeea8"/>
  <circle cx="546.542" cy="581.913" r="1.16063" fill="#cad8ff"/>
  <circle cx="352.604" cy="526.341" r="7.85162" fill="#aabfff"/>
  <circle cx="323.722" cy="196.906" r="1.31221" fill="#cad8ff"/>
  <circle cx="523.547" cy="291.367" r="1.20332" fill="#ffeea8"/>
  <circle cx="560.253" cy="449.554" r="3.62757" fill="#fff4ea"/>
  <circle cx="721.757" cy="557.553" r="3.40559" fill="#ffeea8"/>
  <circle cx="77.7935" cy="232.883" r="1.86875" fill="#aabfff"/>
  <circle cx="503.532" cy="275.991" r="1.27988" fill="#cad8ff"/>
  <circle cx="542.818" cy="246.969" r="3.86192" fill="#ffeea8"/>
  <circle cx="288.371" cy="475.592" r="1.32581" fill="#ffeea8"/>
  <circle cx="607.244" cy="375.122" r="3.36795" fill="#ffeea8"/>
  <circle cx="749.509" cy="361.468" r="2.96983" fill="#ffeea8"/>
  <circle cx="437.947" cy="55.5955" r="3.61144" fill="#ffeea8"/>
  <circle cx="552.701" cy="805.379" r="1.19796" fill="#ffeea8"/>
  <circle cx="290.55" cy="656.947" r="1.1416" fill="#ffeea8"/>
  <circle cx="462.804" cy="637.517" r="2.98621" fill="#ffeea8"/>
  <circle cx="531.841" cy="607.379" r="1.1846" fill="#ffeea8"/>
  <circle cx="919.252" cy="286.768" r="1.48565" fill="#aabfff"/>
  <circle cx="688.645" cy="496" r="2.42082" fill="#ffeea8"/>
  <circle cx="169.537" cy="390.654" r="3.54186" fill="#aabfff"/>
  <circle cx="74.6035" cy="407.209" r="1.7781" fill="#cad8ff"/>
  <circle cx="643.076" cy="350.08" r="2.52753" fill="#ffeea8"/>
  <circle cx="348.17" cy="215.927" r="3.13144" fill="#ffeea8"/>
  <circle cx="538.753" cy="264.575" r="2.01291" fill="#ffeea8"/>
  <circle cx="469.526" cy="386.138" r="3.25225" fill="#ffeea8"/>
  <circle cx="443.331" cy="680.807" r="1.81984" fill="#ffd2a1"/>
  <circle cx="304.615" cy="753.986" r="1.04738" fill="#aabfff"/>
  <circle cx="741.427" cy="364.509" r="1.30719" fill="#ffeea8"/>
  <circle cx="454.546" cy="501.228" r="1.21181" fill="#ffeea8"/>
  <circle cx="405.358" cy="772.439" r="3.22673" fill="#aabfff"/>
  <circle cx="627.578" cy="198.79" r="1.46918" fill="#ffeea8"/>
  <circle cx="368.063" cy="656.362" r="1.886" fill="#cad8ff"/>
  <circle cx="41.5455" cy="382.339" r="2.38692" fill="#ffeea8"/>
  <circle cx="732.246" cy="504.636" r="1.35143" fill="#ffeea8"/>
  <circle cx="621.358" cy="615.189" r="1.2968" fill="#ffeea8"/>
  <circle cx="332.803" cy="158.235" r="2.10964" fill="#cad8ff"/>
  <circle cx="677.161" cy="260.356" r="1.0175" fill="#ffeea8"/>
  <circle cx="295.427" cy="396.726" r="1.43054" fill="#aabfff"/>
  <circle cx="512.466" cy="550.258" r="1.26456" fill="#ffeea8"/>
  <circle cx="207.304" cy="493.663" r="1.01819" fill="#ffeea8"/>
  <circle cx="490.749" cy="193.886" r="1.71699" fill="#ffeea8"/>
  <circle cx="597.976" cy="521.704" r="1.25174" fill="#ffeea8"/>
  <circle cx="566.292" cy="539.914" r="2.1621" fill="#ffeea8"/>
  <circle cx="587.799" cy="388.114" r="6.97611" fill="#ffeea8"/>
  <circle cx="658.473" cy="749.415" r="1.42362" fill="#ffeea8"/>
  <circle cx="384.54" cy="243.074" r="1.03891" fill="#ffeea8"/>
  <circle cx="675.747" cy="582.047" r="1.01765" fill="#cad8ff"/>
  <circle cx="694.627" cy="683.331" r="2.09157" fill="#ffeea8"/>
  <circle cx="456.452" cy="458.869" r="1.75034" fill="#ffeea8"/>
  <circle cx="685.12" cy="77.0232" r="1.38685" fill="#ffeea8"/>
  <circle cx="259.317" cy="506.025" r="1.25589" fill="#ffeea8"/>
  <circle cx="434.49" cy="598.863" r="1.43638" fill="#aabfff"/>
  <circle cx="815.347" cy="347.512" r="3.67144" fill="#ffeea8"/>
  <circle cx="805.908" cy="490.006" r="1.35298" fill="#ffeea8"/>
  <circle cx="494.094" cy="548.324" r="1.2555" fill="#ffeea8"/>
  <circle cx="293.161" cy="485.107" r="1.40035" fill="#ffeea8"/>
  <circle cx="827.676" cy="216.68" r="1.86897" fill="#ffeea8"/>
  <circle cx="266.98" cy="296.918" r="3.4552" fill="#ffeea8"/>
  <circle cx="376.669" cy="693.066" r="2.46826" fill="#ffeea8"/>
  <circle cx="358.782" cy="449.116" r="1.07001" fill="#ffeea8"/>
  <circle cx="375.413" cy="732.947" r="1.73952" fill="#ffeea8"/>
  <circle cx="656.342" cy="390.913" r="1.72217" fill="#ffeea8"/>
  <circle cx="66.0206" cy="493.85" r="1.46438" fill="#aabfff"/>
  <circle cx="846.849" cy="492.828" r="2.14177" fill="#ffeea8"/>
  <circle cx="332.287" cy="839.412" r="1.06597" fill="#ffeea8"/>
  <circle cx="600.503" cy="974.03" r="1.19293" fill="#ffeea8"/>
  <circle cx="642.706" cy="285.43" r="1.54862" fill="#ffeea8"/>
  <circle cx="101.377" cy="453.403" r="1.12293" fill="#ffeea8"/>
  <circle cx="607.681" cy="262.623" r="1.8173" fill="#cad8ff"/>
  <circle cx="82.767" cy="492.151" r="1.49517" fill="#ffeea8"/>
  <circle cx="505.236" cy="514.066" r="1.13312" fill="#ffeea8"/>
  <circle cx="152.155" cy="196.07" r="1.3772" fill="#cad8ff"/>
  <circle cx="523.93" cy="677.894" r="1.39456" fill="#ffeea8"/>
  <circle cx="766.423" cy="263.843" r="1.30849" fill="#aabfff"/>
  <circle cx="161.456" cy="237.234" r="4.67931" fill="#aabfff"/>
  <circle cx="336.227" cy="460.096" r="1.83642" fill="#ffeea8"/>
  <circle cx="244.647" cy="463.473" r="1.5996" fill="#aabfff"/>
  <circle cx="638.739" cy="676.042" r="2.82306" fill="#ffeea8"/>
  <circle cx="428.355" cy="378.761" r="1.06423" fill="#cad8ff"/>
  <circle cx="340.688" cy="940.415" r="1.36982" fill="#cad8ff"/>
  <circle cx="490.24" cy="527.998" r="1.1674" fill="#ffd2a1"/>
  <circle cx="401.724" cy="662.922" r="1.00356" fill="#ffeea8"/>
  <circle cx="580.455" cy="458.09" r="1.36653" fill="#aabfff"/>
  <circle cx="319.057" cy="623.906" r="2.78215" fill="#ffeea8"/>
  <circle cx="200.419" cy="686.868" r="2.76546" fill="#ffeea8"/>
  <circle cx="230.235" cy="309.432" r="1.96437" fill="#ffeea8"/>
  <circle cx="596.487" cy="612.072" r="8" fill="#aabfff"/>
  <circle cx="753.433" cy="284.981" r="2.0216" fill="#ffeea8"/>
  <circle cx="366.298" cy="552.819" r="4.33825" fill="#ffeea8"/>
  <circle cx="104.824" cy="487.289" r="1.76629" fill="#ffeea8"/>
  <circle cx="428.17" cy="550.121" r="1.58677" fill="#ffeea8"/>
  <circle cx="48.5398" cy="440.03" r="1.01725" fill="#ffeea8"/>
  <circle cx="591.978" cy="824" r="1.88945" fill="#cad8ff"/>
  <circle cx="325.698" cy="138.494" r="1.56218" fill="#ffeea8"/>
  <circle cx="835.725" cy="595.779" r="1.59752" fill="#ffeea8"/>
  <circle cx="771.071" cy="533.927" r="1.34195" fill="#ffeea8"/>
  <circle cx="112.355" cy="454.534" r="1.07023" fill="#cad8ff"/>
  <circle cx="450.327" cy="271.887" r="2.43672" fill="#ffeea8"/>
  <circle cx="360.576" cy="318.887" r="1.42188" fill="#fff4ea"/>
  <circle cx="200.412" cy="860.801" r="3.18047" fill="#ffeea8"/>
  <circle cx="387.923" cy="973.239" r="1.00976" fill="#ffeea8"/>
  <circle cx="708.739" cy="789.104" r="1.06787" fill="#ffeea8"/>
  <circle cx="460.447" cy="593.276" r="2.35915" fill="#ffeea8"/>
  <circle cx="966.59" cy="496.955" r="3.09023" fill="#ffeea8"/>
  <circle cx="577.073" cy="717.946" r="2.06033" fill="#f8f7ff"/>
  <circle cx="174.965" cy="355.017" r="2.27513" fill="#ffeea8"/>
  <circle cx="316.397" cy="477.566" r="1.28978" fill="#ffeea8"/>
  <circle cx="750.38" cy="903.458" r="4.93509" fill="#aabfff"/>
  <circle cx="558.401" cy="631.964" r="1.90715" fill="#ffeea8"/>
  <circle cx="637.255" cy="474.259" r="3.78369" fill="#ffeea8"/>
  <circle cx="702.091" cy="258.186" r="3.94255" fill="#ffeea8"/>
  <circle cx="848.79" cy="342.257" r="2.07696" fill="#ffeea8"/>
  <circle cx="407.65" cy="660.007" r="1.20571" fill="#ffeea8"/>
  <circle cx="176.372" cy="615.03" r="1.39719" fill="#ffeea8"/>
  <circle cx="146.022" cy="740.702" r="2.10123" fill="#ffeea8"/>
  <circle cx="452.345" cy="403.826" r="4.18586" fill="#ffeea8"/>
  <circle cx="550.062" cy="320.722" r="2.93127" fill="#ffeea8"/>
  <circle cx="594.06" cy="459.238" r="1.04662" fill="#ffeea8"/>
  <circle cx="609.528" cy="194.808" r="1.96667" fill="#ffeea8"/>
  <circle cx="587.733" cy="542.665" r="1.97837" fill="#ffeea8"/>
  <circle cx="511.234" cy="646.596" r="1.52594" fill="#ffeea8"/>
  <circle cx="413.106" cy="613.249" r="1.94227" fill="#ffeea8"/>
  <circle cx="460.034" cy="249.255" r="2.91946" fill="#cad8ff"/>
  <circle cx="541.689" cy="377.636" r="1.4193" fill="#f8f7ff"/>
  <circle cx="588.246" cy="545.598" r="3.27637" fill="#cad8ff"/>
  <circle cx="583.28" cy="419.987" r="1.18787" fill="#cad8ff"/>
  <circle cx="144.296" cy="629.34" r="2.55909" fill="#ffeea8"/>
  <circle cx="664.166" cy="791.695" r="2.04734" fill="#ffeea8"/>
  <circle cx="548.511" cy="431.286" r="3.36642" fill="#ffeea8"/>
  <circle cx="357.824" cy="475.517" r="1.10868" fill="#ffeea8"/>
  <circle cx="657.943" cy="181.536" r="1.20864" fill="#f8f7ff"/>
  <circle cx="789.475" cy="129.615" r="1.73259" fill="#ffeea8"/>
  <circle cx="348.795" cy="960.483" r="1.65878" fill="#ffeea8"/>
  <circle cx="711.781" cy="280.276" r="1.14921" fill="#ffd2a1"/>
  <circle cx="259.36" cy="195.247" r="4.03426" fill="#ffeea8"/>
  <circle cx="416.129" cy="28.6108" r="2.55196" fill="#cad8ff"/>
  <circle cx="391.505" cy="887.028" r="1.86548" fill="#fff4ea"/>
  <circle cx="876.865" cy="697.586" r="1.8682" fill="#ffeea8"/>
  <circle cx="443.991" cy="190.73" r="2.28814" fill="#ffeea8"/>
  <circle cx="495.621" cy="683.108" r="3.10287" fill="#cad8ff"/>
  <circle cx="134.063" cy="766.804" r="1.07001" fill="#ffeea8"/>
  <circle cx="238.592" cy="727.142" r="2.99358" fill="#cad8ff"/>
  <circle cx="339.545" cy="571.497" r="1.3891" fill="#cad8ff"/>
  <circle cx="339.114" cy="197.499" r="1.25259" fill="#ffeea8"/>
  <circle cx="633.859" cy="225.736" r="1.02717" fill="#ffeea8"/>
  <circle cx="398.775" cy="523.353" r="1.98858" fill="#cad8ff"/>
  <circle cx="430.552" cy="310.805" r="1.32322" fill="#f8f7ff"/>
  <circle cx="797.185" cy="834.572" r="1.36687" fill="#f8f7ff"/>
  <circle cx="411.099" cy="655.39" r="1.33047" fill="#ffeea8"/>
  <circle cx="669.107" cy="878.251" r="1.00942" fill="#ffeea8"/>
  <circle cx="584.935" cy="943.078" r="1.46683" fill="#ffeea8"/>
  <circle cx="968.627" cy="553.143" r="4.13074" fill="#aabfff"/>
  <circle cx="252.232" cy="476.673" r="2.03521" fill="#ffeea8"/>
  <circle cx="605.55" cy="502.689" r="1.43574" fill="#ffeea8"/>
  <circle cx="658.286" cy="111.54" r="1.19756" fill="#cad8ff"/>
  <circle cx="143.826" cy="511.552" r="1.21368" fill="#ffeea8"/>
  <circle cx="309.6" cy="333.78" r="1.27337" fill="#ffeea8"/>
  <circle cx="443.873" cy="431.889" r="3.39761" fill="#ffeea8"/>
  <circle cx="91.5485" cy="431.24" r="6.8841" fill="#ffeea8"/>
  <circle cx="186.735" cy="128.589" r="3.09516" fill="#ffeea8"/>
  <circle cx="903.164" cy="569.15" r="2.14419" fill="#cad8ff"/>
  <circle cx="636.207" cy="641.796" r="1.30343" fill="#ffeea8"/>
  <circle cx="483.825" cy="403.728" r="3.45749" fill="#ffeea8"/>
  <circle cx="88.5047" cy="371.632" r="2.70722" fill="#aabfff"/>
  <circle cx="608.834" cy="485.201" r="2.3482" fill="#aabfff"/>
  <circle cx="353.195" cy="760.197" r="1.20009" fill="#ffeea8"/>
  <circle cx="959.888" cy="695.663" r="3.27088" fill="#ffeea8"/>
  <circle cx="622.123" cy="616.577" r="2.58799" fill="#aabfff"/>
  <circle cx="762.449" cy="859.07" r="1.43385" fill="#f8f7ff"/>
  <circle cx="499.963" cy="663.687" r="3.85524" fill="#aabfff"/>
  <circle cx="488.602" cy="547.495" r="1.71611" fill="#ffeea8"/>
  <circle cx="722.701" cy="701.047" r="1.09042" fill="#ffeea8"/>
  <circle cx="526.992" cy="646.611" r="2.00788" fill="#f8f7ff"/>
  <circle cx="349.612" cy="122.782" r="1.62619" fill="#ffeea8"/>
  <circle cx="532.154" cy="183.713" r="1.12942" fill="#ffeea8"/>
  <circle cx="635.545" cy="383.317" r="1.79125" fill="#ffeea8"/>
  <circle cx="368.425" cy="704.654" r="1.84198" fill="#ffeea8"/>
  <circle cx="28.3325" cy="417.577" r="4.40247" fill="#aabfff"/>
  <circle cx="185.859" cy="869.196" r="4.47922" fill="#cad8ff"/>
  <circle cx="737.625" cy="343.488" r="2.65647" fill="#aabfff"/>
  <circle cx="675.148" cy="570.29" r="1.89143" fill="#ffeea8"/>
  <circle cx="643.367" cy="91.3491" r="1.33894" fill="#ffeea8"/>
  <circle cx="111.18" cy="630.217" r="2.1827" fill="#ffeea8"/>
  <circle cx="322.354" cy="317.023" r="2.13344" fill="#aabfff"/>
  <circle cx="484.744" cy="698.921" r="3.22616" fill="#f8f7ff"/>
  <circle cx="340.954" cy="255.256" r="2.19529" fill="#ffeea8"/>
  <circle cx="570.124" cy="554.028" r="4.20854" fill="#ffeea8"/>
  <circle cx="188.542" cy="183.775" r="2.40956" fill="#ffeea8"/>
  <circle cx="473.526" cy="739.65" r="1.5904" fill="#ffeea8"/>
  <circle cx="375.051" cy="465.376" r="2.87148" fill="#ffeea8"/>
  <circle cx="351.486" cy="540.755" r="1.65523" fill="#cad8ff"/>
  <circle cx="437.314" cy="566.18" r="1.35249" fill="#ffeea8"/>
  <circle cx="278.359" cy="710.929" r="1.3043" fill="#ffeea8"/>
  <circle cx="173.643" cy="467.27" r="2.68037" fill="#ffeea8"/>
  <circle cx="594.786" cy="639.481" r="2.30464" fill="#ffd2a1"/>
  <circle cx="540.46" cy="589.842" r="1.11201" fill="#ffeea8"/>
  <circle cx="962.846" cy="386.487" r="2.41665" fill="#ffeea8"/>
  <circle cx="628.423" cy="345.991" r="1.83064" fill="#cad8ff"/>
  <circle cx="892.049" cy="381.15" r="2.01327" fill="#ffeea8"/>
  <circle cx="535.018" cy="443.708" r="3.14769" fill="#cad8ff"/>
  <circle cx="810.033" cy="671.413" r="1.93556" fill="#f8f7ff"/>
  <circle cx="763.037" cy="641.194" r="1.75942" fill="#ffeea8"/>
  <circle cx="626.299" cy="622.259" r="2.71169" fill="#ffeea8"/>
  <circle cx="763.602" cy="794.985" r="1.66075" fill="#f8f7ff"/>
  <circle cx="588.008" cy="656.414" r="1.12382" fill="#ffeea8"/>
  <circle cx="707.977" cy="369.894" r="1.57629" fill="#ffeea8"/>
  <circle cx="491.56" cy="924.077" r="1.01429" fill="#ffeea8"/>
  <circle cx="119.342" cy="354.174" r="1.49524" fill="#ffeea8"/>
  <circle cx="692.627" cy="601.046" r="3.04456" fill="#ffeea8"/>
  <circle cx="937.427" cy="518.41" r="1.70482" fill="#aabfff"/>
  <circle cx="412.22" cy="340.702" r="1.72462" fill="#ffeea8"/>
  <circle cx="868.654" cy="195.178" r="1.81755" fill="#aabfff"/>
  <circle cx="760.942" cy="481.333" r="1.3213" fill="#ffeea8"/>
  <circle cx="476.682" cy="546.865" r="2.52014" fill="#ffeea8"/>
  <circle cx="133.546" cy="597.233" r="1.37898" fill="#ffeea8"/>
  <circle cx="264.032" cy="326.516" r="2.74106" fill="#ffeea8"/>
  <circle cx="387.077" cy="759.381" r="1.4563" fill="#cad8ff"/>
  <circle cx="225.409" cy="300.856" r="2.20777" fill="#ffeea8"/>
  <circle cx="487.934" cy="398.923" r="1.89804" fill="#aabfff"/>
  <circle cx="463.57" cy="404.175" r="2.01049" fill="#f8f7ff"/>
  <circle cx="467.291" cy="605.104" r="2.01201" fill="#ffeea8"/>
  <circle cx="522.618" cy="137.75" r="3.05262" fill="#ffeea8"/>
  <circle cx="754.525" cy="672.77" r="1.35005" fill="#ffeea8"/>
  <circle cx="969.743" cy="478.802" r="3.21804" fill="#aabfff"/>
  <circle cx="589.552" cy="15.9787" r="1.67302" fill="#cad8ff"/>
  <circle cx="791.542" cy="873.088" r="3.04715" fill="#ffeea8"/>
  <circle cx="460.551" cy="859.933" r="1.90658" fill="#ffd2a1"/>
  <circle cx="797.669" cy="739.103" r="1.61143" fill="#ffeea8"/>
  <circle cx="418.043" cy="833.56" r="1.12135" fill="#cad8ff"/>
  <circle cx="592.893" cy="716.345" r="1.94535" fill="#ffeea8"/>
  <circle cx="676.225" cy="280.755" r="1.43202" fill="#ffeea8"/>
  <circle cx="137.592" cy="439.12" r="1.45157" fill="#cad8ff"/>
  <circle cx="68.4949" cy="292.907" r="1.872" fill="#ffeea8"/>
  <circle cx="88.29" cy="577.051" r="1.31252" fill="#ffeea8"/>
  <circle cx="727.215" cy="453.274" r="1.63649" fill="#ffeea8"/>
  <circle cx="99.1258" cy="411.801" r="2.08435" fill="#ffeea8"/>
  <circle cx="881.026" cy="550.822" r="2.84244" fill="#cad8ff"/>
  <circle cx="403.633" cy="695.998" r="1.79315" fill="#ffeea8"/>
  <circle cx="235.152" cy="305.34" r="1.37852" fill="#aabfff"/>
  <circle cx="188.266" cy="134.301" r="1.27254" fill="#ffeea8"/>
  <circle cx="566.606" cy="573.527" r="1.13082" fill="#f8f7ff"/>
  <circle cx="717.933" cy="362.62" r="1.68797" fill="#ffeea8"/>
  <circle cx="502.451" cy="488.933" r="1.03738" fill="#f8f7ff"/>
  <circle cx="142.648" cy="631.545" r="1.22105" fill="#ffeea8"/>
  <circle cx="533.424" cy="798.948" r="1.05602" fill="#f8f7ff"/>
  <circle cx="305.851" cy="258.591" r="1.49403" fill="#ffeea8"/>
  <circle cx="306.73" cy="959.25" r="1.49811" fill="#ffeea8"/>
  <circle cx="606.016" cy="604.406" r="1.43019" fill="#ffeea8"/>
  <circle cx="239.224" cy="820.89" r="2.35098" fill="#ffeea8"/>
  <circle cx="753.488" cy="523.234" r="2.8708" fill="#ffeea8"/>
  <circle cx="535.81" cy="224.882" r="1.7297" fill="#ffeea8"/>
  <circle cx="311.265" cy="689.807" r="1.68065" fill="#cad8ff"/>
  <circle cx="303.56" cy="381.67" r="1.34956" fill="#ffeea8"/>
  <circle cx="638.405" cy="556.595" r="3.76199" fill="#ffeea8"/>
  <circle cx="463.009" cy="784.797" r="2.33171" fill="#ffeea8"/>
  <circle cx="335.578" cy="558.446" r="1.95644" fill="#ffeea8"/>
  <circle cx="821.683" cy="352.8" r="1.32805" fill="#ffeea8"/>
  <circle cx="281.855" cy="114.34" r="1.68934" fill="#cad8ff"/>
  <circle cx="552.971" cy="49.2797" r="2.43971" fill="#ffeea8"/>
  <circle cx="655.093" cy="341.811" r="1.95813" fill="#ffeea8"/>
  <circle cx="426.476" cy="436.823" r="2.96271" fill="#ffeea8"/>
  <circle cx="358.83" cy="504.56" r="1.64783" fill="#ffeea8"/>
  <circle cx="384.397" cy="334.987" r="1.87391" fill="#f8f7ff"/>
  <circle cx="406.88" cy="240.806" r="1.78559" fill="#ffeea8"/>
  <circle cx="909.763" cy="429.937" r="1.61151" fill="#ffeea8"/>
  <circle cx="254.654" cy="336.916" r="1.17187" fill="#ffeea8"/>
  <circle cx="879.931" cy="275.25" r="3.16891" fill="#aabfff"/>
  <circle cx="280.083" cy="570.35" r="1.15897" fill="#ffeea8"/>
  <circle cx="551.747" cy="273.196" r="2.45525" fill="#ffeea8"/>
  <circle cx="317.092" cy="428.215" r="1.52207" fill="#ffeea8"/>
  <circle cx="695.857" cy="306.002" r="1.24101" fill="#ffeea8"/>
  <circle cx="403.193" cy="601.611" r="1.70336" fill="#ffeea8"/>
  <circle cx="777.741" cy="516.58" r="1.09901" fill="#ffeea8"/>
  <circle cx="180.8" cy="575.994" r="1.89684" fill="#aabfff"/>
  <circle cx="677.121" cy="461.905" r="1.55016" fill="#ffeea8"/>
  <circle cx="407.39" cy="692.258" r="1.51705" fill="#f8f7ff"/>
  <circle cx="391.428" cy="150.209" r="3.07124" fill="#aabfff"/>
  <circle cx="730.24" cy="763.958" r="2.58213" fill="#ffeea8"/>
  <circle cx="453.704" cy="663.277" r="1.56231" fill="#ffeea8"/>
  <circle cx="639.723" cy="675.749" r="3.05793" fill="#ffeea8"/>
  <circle cx="744.927" cy="401.874" r="1.35437" fill="#fff4ea"/>
  <circle cx="802.718" cy="166.83" r="1.50528" fill="#ffeea8"/>
  <circle cx="241.318" cy="383.057" r="1.65645" fill="#ffeea8"/>
  <circle cx="385.432" cy="691.586" r="1.80106" fill="#fff4ea"/>
  <circle cx="287.866" cy="614.771" r="1.11522" fill="#cad8ff"/>
  <circle cx="356.804" cy="148.472" r="1.13844" fill="#ffeea8"/>
  <circle cx="603.168" cy="533.752" r="2.09032" fill="#ffeea8"/>
  <circle cx="750.897" cy="770.165" r="3.08072" fill="#ffeea8"/>
  <circle cx="382.15" cy="456.168" r="1.26747" fill="#ffeea8"/>
  <circle cx="601.711" cy="231.651" r="4.56198" fill="#ffeea8"/>
  <circle cx="359.852" cy="837.668" r="1.93351" fill="#cad8ff"/>
  <circle cx="690.831" cy="697.975" r="1.89891" fill="#ffeea8"/>
  <circle cx="350.61" cy="847.795" r="1.35685" fill="#aabfff"/>
  <circle cx="423.067" cy="790.224" r="1.99044" fill="#cad8ff"/>
  <!-- Star Labels -->
  <text x="333.362" y="294.445" font-family="sans-serif" font-size="8" fill="#aaa">972</text>
  <text x="453.929" y="611.954" font-family="sans-serif" font-size="8" fill="#aaa">141348</text>
  <text x="525.486" y="320.262" font-family="sans-serif" font-size="8" fill="#aaa">86834</text>
  <text x="615.827" y="485.829" font-family="sans-serif" font-size="8" fill="#aaa">100201</text>
  <text x="824.623" y="495.593" font-family="sans-serif" font-size="8" fill="#aaa">130344</text>
  <text x="202.853" y="395.012" font-family="sans-serif" font-size="8" fill="#aaa">395946</text>
  <text x="453.644" y="344.494" font-family="sans-serif" font-size="8" fill="#aaa">527032</text>
  <text x="554.067" y="698.992" font-family="sans-serif" font-size="8" fill="#aaa">175947</text>
  <text x="511.256" y="602.291" font-family="sans-serif" font-size="8" fill="#aaa">202584</text>
  <text x="562.835" y="625.149" font-family="sans-serif" font-size="8" fill="#aaa">215834</text>
  <text x="679.542" y="607.432" font-family="sans-serif" font-size="8" fill="#aaa">319052</text>
  <text x="357.604" y="531.341" font-family="sans-serif" font-size="8" fill="#aaa">413120</text>
  <text x="547.818" y="251.969" font-family="sans-serif" font-size="8" fill="#aaa">490223</text>
  <text x="592.799" y="393.114" font-family="sans-serif" font-size="8" fill="#aaa">261889</text>
  <text x="166.456" y="242.234" font-family="sans-serif" font-size="8" fill="#aaa">33682</text>
  <text x="601.487" y="617.072" font-family="sans-serif" font-size="8" fill="#aaa">122285</text>
  <text x="371.298" y="557.819" font-family="sans-serif" font-size="8" fill="#aaa">133825</text>
  <text x="755.38" y="908.458" font-family="sans-serif" font-size="8" fill="#aaa">240461</text>
  <text x="642.255" y="479.259" font-family="sans-serif" font-size="8" fill="#aaa">244124</text>
  <text x="707.091" y="263.186" font-family="sans-serif" font-size="8" fill="#aaa">249859</text>
  <text x="457.345" y="408.826" font-family="sans-serif" font-size="8" fill="#aaa">282164</text>
  <text x="264.36" y="200.247" font-family="sans-serif" font-size="8" fill="#aaa">437322</text>
  <text x="958.627" y="558.143" font-family="sans-serif" font-size="8" fill="#aaa">11334</text>
  <text x="96.5485" y="436.24" font-family="sans-serif" font-size="8" fill="#aaa">47888</text>
  <text x="504.963" y="668.687" font-family="sans-serif" font-size="8" fill="#aaa">212836</text>
  <text x="33.3325" y="422.577" font-family="sans-serif" font-size="8" fill="#aaa">283077</text>
  <text x="190.859" y="874.196" font-family="sans-serif" font-size="8" fill="#aaa">287679</text>
  <text x="575.124" y="559.028" font-family="sans-serif" font-size="8" fill="#aaa">344335</text>
  <text x="606.711" y="236.651" font-family="sans-serif" font-size="8" fill="#aaa">515241</text>
  <!-- End Star Labels -->
  <!-- Cluster Labels -->
  <text x="327.016" y="289.603" font-family="sans-serif" font-size="12" font-weight="bold" fill="#87ceeb" text-anchor="middle" dy=".3em">C1</text>
  <text x="754.798" y="859.577" font-family="sans-serif" font-size="12" font-weight="bold" fill="#87ceeb" text-anchor="middle" dy=".3em">C2</text>
  <!-- End Star Labels -->
</g>
</svg>
